<?xml version="1.0" encoding="UTF-8"?>
<svg id="Layer_1" data-name="Layer 1" xmlns="http://www.w3.org/2000/svg" viewBox="0 0 209.3 590.25">
  <defs>
    <style>
      .cls-1 {
        fill: #efdcf4;
      }

      .cls-2 {
        fill: #1a4958;
      }

      .cls-3 {
        fill: none;
        stroke: #efdcf4;
        stroke-miterlimit: 10;
      }
    </style>
  </defs>
  <path class="cls-3" d="M36.96,20.15H174.81c3.04,0,5.51,2.47,5.51,5.51V570.26c0,8.96-7.27,16.23-16.23,16.23H45.02c-8.96,0-16.23-7.27-16.23-16.23V28.32c0-4.51,3.66-8.17,8.17-8.17Z"/>
  <g>
    <path class="cls-2" d="M105.36,18.65c23.4,0,46.8-.03,70.2,.02,5.32,.01,7.59,2.18,7.29,6.45-.52,7.41-3.2,10.85-8.4,10.2-1.69-.21-3.81-1.54-4.59-2.86-4.09-6.88-10.31-10.72-19.42-10.83-9.42-.12-15.9,3.88-19.9,10.93-1.86,3.28-3.63,3.77-7.01,1.2-1.68-1.28-4.48-2.08-6.78-2.09-26.32-.13-52.64-.28-78.95,.1-6.51,.1-9.42-2.93-11.18-6.9-.56-1.27,2.48-4.27,4.61-5.65,1.42-.92,4.13-.49,6.26-.5,22.62-.03,45.24-.02,67.86-.02,0-.02,0-.04,0-.06Zm67.35,10.09c1.86-1.34,3.14-2.25,4.41-3.17-1.3-.68-2.61-1.91-3.89-1.88-1.59,.03-3.15,1.09-4.73,1.71,1.22,.97,2.43,1.93,4.21,3.34Zm-136.57-.13c1.92-1.27,3.24-2.15,4.57-3.03-1.3-.65-2.59-1.82-3.89-1.82-1.59,0-3.18,.98-4.77,1.54,1.2,.97,2.4,1.94,4.1,3.31Z"/>
    <path class="cls-2" d="M177.14,588.45c-3.34,.57-6.67,1.62-10.01,1.63-40.6,.16-81.2,.21-121.8,.13-4.4,0-8.8-1.06-13.2-1.62,.07-.7,.13-1.4,.2-2.1H176.91c.08,.65,.15,1.31,.23,1.96Z"/>
    <path class="cls-2" d="M27.87,90.09v47.62c-.58,.22-1.16,.44-1.74,.66-1.06-1.88-3.02-3.76-3.05-5.65-.26-14.31-.22-28.62-.03-42.93,.02-1.72,1.48-3.42,1.84-4.18,3.97,.9,6.82,2.07,9.69,2.11,14.69,.18,29.39,.01,44.09,.16,1.58,.02,3.14,1.31,4.72,2.01-1.5,.6-2.99,1.71-4.49,1.72-14.88,.13-29.77,.13-44.65,.01-1.96-.02-3.92-.92-6.37-1.54Z"/>
    <path class="cls-1" d="M129.96,61.3v21.72c6.32-.57,11.89-1.4,17.47-1.49,5.62-.09,11.25,.56,18.26,.96v-21.35c.62-.04,1.25-.08,1.87-.12,.41,.75,1.17,1.5,1.19,2.25,.11,6.33,.1,12.66,.09,18.98,0,3.04-1.67,4.61-5.09,4.6-10.48-.01-20.97,.17-31.44-.15-1.79-.05-4.92-2.12-5.01-3.4-.5-6.96-.26-13.96-.22-20.95,0-.65,.45-1.29,.69-1.94l2.19,.88Z"/>
    <path class="cls-1" d="M41.62,61.3v21.72c6.32-.57,11.89-1.4,17.47-1.49,5.62-.09,11.25,.56,18.26,.96v-21.35c.62-.04,1.25-.08,1.87-.12,.41,.75,1.17,1.5,1.19,2.25,.11,6.33,.1,12.66,.09,18.98,0,3.04-1.67,4.61-5.09,4.6-10.48-.01-20.97,.17-31.44-.15-1.79-.05-4.92-2.12-5.01-3.4-.5-6.96-.26-13.96-.22-20.95,0-.65,.45-1.29,.69-1.94l2.19,.88Z"/>
    <path class="cls-2" d="M203.52,7.32c-1.99,11.76-9.16,20.22-17.17,20.06v-7.21c6.52,.64,7.94-3.38,9.75-7.25,1.54-3.3,1.78-5.63-3.34-6.54-1.19-.21-2.92-2.51-2.63-3.43,.37-1.15,2.48-2.45,4.02-2.64,3.24-.4,6.67-.45,9.89,.03,1.89,.28,3.52,1.84,5.26,2.82-1.27,1.2-2.46,2.46-3.83,3.57-.48,.39-1.37,.43-1.95,.59Z"/>
    <path class="cls-2" d="M22.78,19.74v7.4c-7.69,.72-15.54-8.37-16.98-19.66-1.08-.37-2.48-.6-3.47-1.27C1.29,5.49-.08,4.31,0,3.42,.1,2.39,1.55,.67,2.52,.62c4.82-.26,9.69-.2,14.51,.07,.83,.05,2.03,1.55,2.17,2.48,.13,.86-.67,2.3-1.54,2.69-2.92,1.32-7.48,1.57-5.08,5.92,1.99,3.6,2.04,9.06,10.2,7.96Z"/>
    <path class="cls-2" d="M183.85,361.47c.81,1.95,2.3,3.9,2.33,5.87,.21,13.95,.24,27.91-.01,41.86-.04,2.04-1.84,4.06-2.83,6.08l-1.59-.52v-52.8l2.1-.49Z"/>
    <path class="cls-2" d="M183.6,84.48c.9,2.04,2.54,4.08,2.58,6.13,.23,13.82,.23,27.65,0,41.47-.03,2.06-1.7,4.09-2.61,6.14l-1.88-.49v-52.52c.64-.25,1.28-.49,1.92-.74Z"/>
    <path class="cls-2" d="M25.44,414.9c-.84-1.93-2.37-3.85-2.4-5.78-.21-13.99-.21-27.99,0-41.98,.03-1.97,1.62-3.92,2.49-5.88,.58,.13,1.15,.25,1.73,.38v52.73c-.61,.18-1.21,.36-1.82,.54Z"/>
    <path class="cls-2" d="M183.85,482.43c.81,1.95,2.3,3.9,2.33,5.87,.21,13.95,.24,27.91-.01,41.86-.04,2.04-1.84,4.06-2.83,6.08l-1.59-.52v-52.8l2.1-.49Z"/>
    <path class="cls-2" d="M25.44,535.85c-.84-1.93-2.37-3.85-2.4-5.78-.21-13.99-.21-27.99,0-41.98,.03-1.97,1.62-3.92,2.49-5.88,.58,.13,1.15,.25,1.73,.38v52.73c-.61,.18-1.21,.36-1.82,.54Z"/>
    <path class="cls-2" d="M183.85,224.51c.81,1.95,2.3,3.9,2.33,5.87,.21,13.95,.24,27.91-.01,41.86-.04,2.04-1.84,4.06-2.83,6.08l-1.59-.52v-52.8l2.1-.49Z"/>
    <path class="cls-2" d="M25.44,277.94c-.84-1.93-2.37-3.85-2.4-5.78-.21-13.99-.21-27.99,0-41.98,.03-1.97,1.62-3.92,2.49-5.88,.58,.13,1.15,.25,1.73,.38v52.73c-.61,.18-1.21,.36-1.82,.54Z"/>
    <path class="cls-2" d="M179.26,89.36c-1.16,.78-2.31,2.22-3.48,2.23-15.57,.15-31.14,.14-46.71,.02-1.09,0-2.17-1.19-3.25-1.83,1.06-.64,2.12-1.84,3.19-1.85,16.45-.12,32.91-.08,49.36-.08,.3,.5,.59,1.01,.89,1.51Z"/>
    <path class="cls-2" d="M186.24,30.67c0,3.32-.31,6.66,.07,9.94,.6,5.13-1.71,10.36,2.83,15.42,3.1,3.45,.13,8.17-5.2,10.78V30.7c.77-.01,1.53-.02,2.3-.03Z"/>
    <path class="cls-2" d="M25.31,31.04v35.36c-6.79-2.49-7.98-7.41-3.56-12.56,.99-1.15,1.12-3.02,1.16-4.57,.12-6.05,.05-12.11,.05-18.16,.79-.02,1.57-.04,2.36-.06Z"/>
    <path class="cls-2" d="M165.29,34.47c-10.44,1.91-13.08,.03-11.55-8.24,4.03,2.87,7.3,5.21,11.55,8.24Z"/>
    <path class="cls-2" d="M146.72,26c1.52,8.43-1.01,10.24-11.3,8.63,3.97-3.03,7.14-5.45,11.3-8.63Z"/>
  </g>
  <g>
    <path class="cls-2" d="M133.02,99.84c2.26,0,4.53,0,6.79,0,1.67,0,2.59,.9,2.6,2.57,.01,4.66,.01,9.32,0,13.98,0,1.72-.92,2.62-2.65,2.63-4.56,.01-9.12,.01-13.68,0-1.74,0-2.64-.91-2.64-2.63,0-4.66,0-9.32,0-13.98,0-1.67,.92-2.56,2.59-2.56,2.33,0,4.66,0,6.99,0Z"/>
    <path class="cls-2" d="M133.03,120.22c2.55,0,5.11-.02,7.66,0,1.63,.02,1.73,.15,1.73,1.78,0,.29,0,.58,0,.87,0,1.59-.11,1.77-1.74,1.78-5.17,.03-10.34,.03-15.51,0-1.62-.01-1.73-.19-1.73-1.8,0-.36,0-.71,0-1.07,0-1.36,.13-1.54,1.55-1.56,2.68-.03,5.36,0,8.05,0h0Z"/>
    <path class="cls-2" d="M143.59,114.21c0-1.2,0-2.39,0-3.59,0-.74,.25-1.15,1.08-1.1,.77,.05,1.55,.05,2.32,0,.73-.05,1.04,.32,1.04,.95,.03,2.52,.03,5.04,0,7.56,0,.66-.31,1.08-1.09,1.02-.71-.06-1.43-.06-2.13,0-.98,.09-1.25-.39-1.24-1.26,.02-1.19,0-2.39,0-3.59,0,0,0,0,0,0Z"/>
    <path class="cls-2" d="M122.26,114.32c0,1.2,0,2.39,0,3.59,0,.79-.28,1.21-1.15,1.15-.74-.05-1.49-.05-2.23,0-.72,.05-1.06-.31-1.07-.94-.03-2.55-.03-5.1,0-7.66,0-.63,.33-.99,1.06-.94,.77,.05,1.55,.05,2.32,0,.76-.05,1.06,.3,1.06,1.02,0,1.26,0,2.52,0,3.78,0,0,0,0,0,0Z"/>
  </g>
  <g>
    <path class="cls-2" d="M160.19,99.84c2.26,0,4.53,0,6.79,0,1.67,0,2.59,.9,2.6,2.57,.01,4.66,.01,9.32,0,13.98,0,1.72-.92,2.62-2.65,2.63-4.56,.01-9.12,.01-13.68,0-1.74,0-2.64-.91-2.64-2.63,0-4.66,0-9.32,0-13.98,0-1.67,.92-2.56,2.59-2.56,2.33,0,4.66,0,6.99,0Z"/>
    <path class="cls-2" d="M160.2,120.22c2.55,0,5.11-.02,7.66,0,1.63,.02,1.73,.15,1.73,1.78,0,.29,0,.58,0,.87,0,1.59-.11,1.77-1.74,1.78-5.17,.03-10.34,.03-15.51,0-1.62-.01-1.73-.19-1.73-1.8,0-.36,0-.71,0-1.07,0-1.36,.13-1.54,1.55-1.56,2.68-.03,5.36,0,8.05,0h0Z"/>
    <path class="cls-2" d="M170.76,114.21c0-1.2,0-2.39,0-3.59,0-.74,.25-1.15,1.08-1.1,.77,.05,1.55,.05,2.32,0,.73-.05,1.04,.32,1.04,.95,.03,2.52,.03,5.04,0,7.56,0,.66-.31,1.08-1.09,1.02-.71-.06-1.43-.06-2.13,0-.98,.09-1.25-.39-1.24-1.26,.02-1.19,0-2.39,0-3.59,0,0,0,0,0,0Z"/>
    <path class="cls-2" d="M149.43,114.32c0,1.2,0,2.39,0,3.59,0,.79-.28,1.21-1.15,1.15-.74-.05-1.49-.05-2.23,0-.72,.05-1.06-.31-1.07-.94-.03-2.55-.03-5.1,0-7.66,0-.63,.33-.99,1.06-.94,.77,.05,1.55,.05,2.32,0,.76-.05,1.06,.3,1.06,1.02,0,1.26,0,2.52,0,3.78,0,0,0,0,0,0Z"/>
  </g>
  <g>
    <path class="cls-2" d="M133.02,134.6c2.26,0,4.53,0,6.79,0,1.67,0,2.59,.9,2.6,2.57,.01,4.66,.01,9.32,0,13.98,0,1.72-.92,2.62-2.65,2.63-4.56,.01-9.12,.01-13.68,0-1.74,0-2.64-.91-2.64-2.63,0-4.66,0-9.32,0-13.98,0-1.67,.92-2.56,2.59-2.56,2.33,0,4.66,0,6.99,0Z"/>
    <path class="cls-2" d="M133.03,154.98c2.55,0,5.11-.02,7.66,0,1.63,.02,1.73,.15,1.73,1.78,0,.29,0,.58,0,.87,0,1.59-.11,1.77-1.74,1.78-5.17,.03-10.34,.03-15.51,0-1.62-.01-1.73-.19-1.73-1.8,0-.36,0-.71,0-1.07,0-1.36,.13-1.54,1.55-1.56,2.68-.03,5.36,0,8.05,0h0Z"/>
    <path class="cls-2" d="M143.59,148.97c0-1.2,0-2.39,0-3.59,0-.74,.25-1.15,1.08-1.1,.77,.05,1.55,.05,2.32,0,.73-.05,1.04,.32,1.04,.95,.03,2.52,.03,5.04,0,7.56,0,.66-.31,1.08-1.09,1.02-.71-.06-1.43-.06-2.13,0-.98,.09-1.25-.39-1.24-1.26,.02-1.19,0-2.39,0-3.59,0,0,0,0,0,0Z"/>
    <path class="cls-2" d="M122.26,149.09c0,1.2,0,2.39,0,3.59,0,.79-.28,1.21-1.15,1.15-.74-.05-1.49-.05-2.23,0-.72,.05-1.06-.31-1.07-.94-.03-2.55-.03-5.1,0-7.66,0-.63,.33-.99,1.06-.94,.77,.05,1.55,.05,2.32,0,.76-.05,1.06,.3,1.06,1.02,0,1.26,0,2.52,0,3.78,0,0,0,0,0,0Z"/>
  </g>
  <g>
    <path class="cls-2" d="M160.19,134.6c2.26,0,4.53,0,6.79,0,1.67,0,2.59,.9,2.6,2.57,.01,4.66,.01,9.32,0,13.98,0,1.72-.92,2.62-2.65,2.63-4.56,.01-9.12,.01-13.68,0-1.74,0-2.64-.91-2.64-2.63,0-4.66,0-9.32,0-13.98,0-1.67,.92-2.56,2.59-2.56,2.33,0,4.66,0,6.99,0Z"/>
    <path class="cls-2" d="M160.2,154.98c2.55,0,5.11-.02,7.66,0,1.63,.02,1.73,.15,1.73,1.78,0,.29,0,.58,0,.87,0,1.59-.11,1.77-1.74,1.78-5.17,.03-10.34,.03-15.51,0-1.62-.01-1.73-.19-1.73-1.8,0-.36,0-.71,0-1.07,0-1.36,.13-1.54,1.55-1.56,2.68-.03,5.36,0,8.05,0h0Z"/>
    <path class="cls-2" d="M170.76,148.97c0-1.2,0-2.39,0-3.59,0-.74,.25-1.15,1.08-1.1,.77,.05,1.55,.05,2.32,0,.73-.05,1.04,.32,1.04,.95,.03,2.52,.03,5.04,0,7.56,0,.66-.31,1.08-1.09,1.02-.71-.06-1.43-.06-2.13,0-.98,.09-1.25-.39-1.24-1.26,.02-1.19,0-2.39,0-3.59,0,0,0,0,0,0Z"/>
    <path class="cls-2" d="M149.43,149.09c0,1.2,0,2.39,0,3.59,0,.79-.28,1.21-1.15,1.15-.74-.05-1.49-.05-2.23,0-.72,.05-1.06-.31-1.07-.94-.03-2.55-.03-5.1,0-7.66,0-.63,.33-.99,1.06-.94,.77,.05,1.55,.05,2.32,0,.76-.05,1.06,.3,1.06,1.02,0,1.26,0,2.52,0,3.78,0,0,0,0,0,0Z"/>
  </g>
  <g>
    <path class="cls-2" d="M133.02,169.36c2.26,0,4.53,0,6.79,0,1.67,0,2.59,.9,2.6,2.57,.01,4.66,.01,9.32,0,13.98,0,1.72-.92,2.62-2.65,2.63-4.56,.01-9.12,.01-13.68,0-1.74,0-2.64-.91-2.64-2.63,0-4.66,0-9.32,0-13.98,0-1.67,.92-2.56,2.59-2.56,2.33,0,4.66,0,6.99,0Z"/>
    <path class="cls-2" d="M133.03,189.74c2.55,0,5.11-.02,7.66,0,1.63,.02,1.73,.15,1.73,1.78,0,.29,0,.58,0,.87,0,1.59-.11,1.77-1.74,1.78-5.17,.03-10.34,.03-15.51,0-1.62-.01-1.73-.19-1.73-1.8,0-.36,0-.71,0-1.07,0-1.36,.13-1.54,1.55-1.56,2.68-.03,5.36,0,8.05,0h0Z"/>
    <path class="cls-2" d="M143.59,183.73c0-1.2,0-2.39,0-3.59,0-.74,.25-1.15,1.08-1.1,.77,.05,1.55,.05,2.32,0,.73-.05,1.04,.32,1.04,.95,.03,2.52,.03,5.04,0,7.56,0,.66-.31,1.08-1.09,1.02-.71-.06-1.43-.06-2.13,0-.98,.09-1.25-.39-1.24-1.26,.02-1.19,0-2.39,0-3.59,0,0,0,0,0,0Z"/>
    <path class="cls-2" d="M122.26,183.85c0,1.2,0,2.39,0,3.59,0,.79-.28,1.21-1.15,1.15-.74-.05-1.49-.05-2.23,0-.72,.05-1.06-.31-1.07-.94-.03-2.55-.03-5.1,0-7.66,0-.63,.33-.99,1.06-.94,.77,.05,1.55,.05,2.32,0,.76-.05,1.06,.3,1.06,1.02,0,1.26,0,2.52,0,3.78,0,0,0,0,0,0Z"/>
  </g>
  <g>
    <path class="cls-2" d="M160.19,169.36c2.26,0,4.53,0,6.79,0,1.67,0,2.59,.9,2.6,2.57,.01,4.66,.01,9.32,0,13.98,0,1.72-.92,2.62-2.65,2.63-4.56,.01-9.12,.01-13.68,0-1.74,0-2.64-.91-2.64-2.63,0-4.66,0-9.32,0-13.98,0-1.67,.92-2.56,2.59-2.56,2.33,0,4.66,0,6.99,0Z"/>
    <path class="cls-2" d="M160.2,189.74c2.55,0,5.11-.02,7.66,0,1.63,.02,1.73,.15,1.73,1.78,0,.29,0,.58,0,.87,0,1.59-.11,1.77-1.74,1.78-5.17,.03-10.34,.03-15.51,0-1.62-.01-1.73-.19-1.73-1.8,0-.36,0-.71,0-1.07,0-1.36,.13-1.54,1.55-1.56,2.68-.03,5.36,0,8.05,0h0Z"/>
    <path class="cls-2" d="M170.76,183.73c0-1.2,0-2.39,0-3.59,0-.74,.25-1.15,1.08-1.1,.77,.05,1.55,.05,2.32,0,.73-.05,1.04,.32,1.04,.95,.03,2.52,.03,5.04,0,7.56,0,.66-.31,1.08-1.09,1.02-.71-.06-1.43-.06-2.13,0-.98,.09-1.25-.39-1.24-1.26,.02-1.19,0-2.39,0-3.59,0,0,0,0,0,0Z"/>
    <path class="cls-2" d="M149.43,183.85c0,1.2,0,2.39,0,3.59,0,.79-.28,1.21-1.15,1.15-.74-.05-1.49-.05-2.23,0-.72,.05-1.06-.31-1.07-.94-.03-2.55-.03-5.1,0-7.66,0-.63,.33-.99,1.06-.94,.77,.05,1.55,.05,2.32,0,.76-.05,1.06,.3,1.06,1.02,0,1.26,0,2.52,0,3.78,0,0,0,0,0,0Z"/>
  </g>
  <g>
    <path class="cls-2" d="M133.02,204.12c2.26,0,4.53,0,6.79,0,1.67,0,2.59,.9,2.6,2.57,.01,4.66,.01,9.32,0,13.98,0,1.72-.92,2.62-2.65,2.63-4.56,.01-9.12,.01-13.68,0-1.74,0-2.64-.91-2.64-2.63,0-4.66,0-9.32,0-13.98,0-1.67,.92-2.56,2.59-2.56,2.33,0,4.66,0,6.99,0Z"/>
    <path class="cls-2" d="M133.03,224.5c2.55,0,5.11-.02,7.66,0,1.63,.02,1.73,.15,1.73,1.78,0,.29,0,.58,0,.87,0,1.59-.11,1.77-1.74,1.78-5.17,.03-10.34,.03-15.51,0-1.62-.01-1.73-.19-1.73-1.8,0-.36,0-.71,0-1.07,0-1.36,.13-1.54,1.55-1.56,2.68-.03,5.36,0,8.05,0h0Z"/>
    <path class="cls-2" d="M143.59,218.5c0-1.2,0-2.39,0-3.59,0-.74,.25-1.15,1.08-1.1,.77,.05,1.55,.05,2.32,0,.73-.05,1.04,.32,1.04,.95,.03,2.52,.03,5.04,0,7.56,0,.66-.31,1.08-1.09,1.02-.71-.06-1.43-.06-2.13,0-.98,.09-1.25-.39-1.24-1.26,.02-1.19,0-2.39,0-3.59,0,0,0,0,0,0Z"/>
    <path class="cls-2" d="M122.26,218.61c0,1.2,0,2.39,0,3.59,0,.79-.28,1.21-1.15,1.15-.74-.05-1.49-.05-2.23,0-.72,.05-1.06-.31-1.07-.94-.03-2.55-.03-5.1,0-7.66,0-.63,.33-.99,1.06-.94,.77,.05,1.55,.05,2.32,0,.76-.05,1.06,.3,1.06,1.02,0,1.26,0,2.52,0,3.78,0,0,0,0,0,0Z"/>
  </g>
  <g>
    <path class="cls-2" d="M160.19,204.12c2.26,0,4.53,0,6.79,0,1.67,0,2.59,.9,2.6,2.57,.01,4.66,.01,9.32,0,13.98,0,1.72-.92,2.62-2.65,2.63-4.56,.01-9.12,.01-13.68,0-1.74,0-2.64-.91-2.64-2.63,0-4.66,0-9.32,0-13.98,0-1.67,.92-2.56,2.59-2.56,2.33,0,4.66,0,6.99,0Z"/>
    <path class="cls-2" d="M160.2,224.5c2.55,0,5.11-.02,7.66,0,1.63,.02,1.73,.15,1.73,1.78,0,.29,0,.58,0,.87,0,1.59-.11,1.77-1.74,1.78-5.17,.03-10.34,.03-15.51,0-1.62-.01-1.73-.19-1.73-1.8,0-.36,0-.71,0-1.07,0-1.36,.13-1.54,1.55-1.56,2.68-.03,5.36,0,8.05,0h0Z"/>
    <path class="cls-2" d="M170.76,218.5c0-1.2,0-2.39,0-3.59,0-.74,.25-1.15,1.08-1.1,.77,.05,1.55,.05,2.32,0,.73-.05,1.04,.32,1.04,.95,.03,2.52,.03,5.04,0,7.56,0,.66-.31,1.08-1.09,1.02-.71-.06-1.43-.06-2.13,0-.98,.09-1.25-.39-1.24-1.26,.02-1.19,0-2.39,0-3.59,0,0,0,0,0,0Z"/>
    <path class="cls-2" d="M149.43,218.61c0,1.2,0,2.39,0,3.59,0,.79-.28,1.21-1.15,1.15-.74-.05-1.49-.05-2.23,0-.72,.05-1.06-.31-1.07-.94-.03-2.55-.03-5.1,0-7.66,0-.63,.33-.99,1.06-.94,.77,.05,1.55,.05,2.32,0,.76-.05,1.06,.3,1.06,1.02,0,1.26,0,2.52,0,3.78,0,0,0,0,0,0Z"/>
  </g>
  <g>
    <path class="cls-2" d="M133.02,238.88c2.26,0,4.53,0,6.79,0,1.67,0,2.59,.9,2.6,2.57,.01,4.66,.01,9.32,0,13.98,0,1.72-.92,2.62-2.65,2.63-4.56,.01-9.12,.01-13.68,0-1.74,0-2.64-.91-2.64-2.63,0-4.66,0-9.32,0-13.98,0-1.67,.92-2.56,2.59-2.56,2.33,0,4.66,0,6.99,0Z"/>
    <path class="cls-2" d="M133.03,259.26c2.55,0,5.11-.02,7.66,0,1.63,.02,1.73,.15,1.73,1.78,0,.29,0,.58,0,.87,0,1.59-.11,1.77-1.74,1.78-5.17,.03-10.34,.03-15.51,0-1.62-.01-1.73-.19-1.73-1.8,0-.36,0-.71,0-1.07,0-1.36,.13-1.54,1.55-1.56,2.68-.03,5.36,0,8.05,0h0Z"/>
    <path class="cls-2" d="M143.59,253.26c0-1.2,0-2.39,0-3.59,0-.74,.25-1.15,1.08-1.1,.77,.05,1.55,.05,2.32,0,.73-.05,1.04,.32,1.04,.95,.03,2.52,.03,5.04,0,7.56,0,.66-.31,1.08-1.09,1.02-.71-.06-1.43-.06-2.13,0-.98,.09-1.25-.39-1.24-1.26,.02-1.19,0-2.39,0-3.59,0,0,0,0,0,0Z"/>
    <path class="cls-2" d="M122.26,253.37c0,1.2,0,2.39,0,3.59,0,.79-.28,1.21-1.15,1.15-.74-.05-1.49-.05-2.23,0-.72,.05-1.06-.31-1.07-.94-.03-2.55-.03-5.1,0-7.66,0-.63,.33-.99,1.06-.94,.77,.05,1.55,.05,2.32,0,.76-.05,1.06,.3,1.06,1.02,0,1.26,0,2.52,0,3.78,0,0,0,0,0,0Z"/>
  </g>
  <g>
    <path class="cls-2" d="M160.19,238.88c2.26,0,4.53,0,6.79,0,1.67,0,2.59,.9,2.6,2.57,.01,4.66,.01,9.32,0,13.98,0,1.72-.92,2.62-2.65,2.63-4.56,.01-9.12,.01-13.68,0-1.74,0-2.64-.91-2.64-2.63,0-4.66,0-9.32,0-13.98,0-1.67,.92-2.56,2.59-2.56,2.33,0,4.66,0,6.99,0Z"/>
    <path class="cls-2" d="M160.2,259.26c2.55,0,5.11-.02,7.66,0,1.63,.02,1.73,.15,1.73,1.78,0,.29,0,.58,0,.87,0,1.59-.11,1.77-1.74,1.78-5.17,.03-10.34,.03-15.51,0-1.62-.01-1.73-.19-1.73-1.8,0-.36,0-.71,0-1.07,0-1.36,.13-1.54,1.55-1.56,2.68-.03,5.36,0,8.05,0h0Z"/>
    <path class="cls-2" d="M170.76,253.26c0-1.2,0-2.39,0-3.59,0-.74,.25-1.15,1.08-1.1,.77,.05,1.55,.05,2.32,0,.73-.05,1.04,.32,1.04,.95,.03,2.52,.03,5.04,0,7.56,0,.66-.31,1.08-1.09,1.02-.71-.06-1.43-.06-2.13,0-.98,.09-1.25-.39-1.24-1.26,.02-1.19,0-2.39,0-3.59,0,0,0,0,0,0Z"/>
    <path class="cls-2" d="M149.43,253.37c0,1.2,0,2.39,0,3.59,0,.79-.28,1.21-1.15,1.15-.74-.05-1.49-.05-2.23,0-.72,.05-1.06-.31-1.07-.94-.03-2.55-.03-5.1,0-7.66,0-.63,.33-.99,1.06-.94,.77,.05,1.55,.05,2.32,0,.76-.05,1.06,.3,1.06,1.02,0,1.26,0,2.52,0,3.78,0,0,0,0,0,0Z"/>
  </g>
  <g>
    <path class="cls-2" d="M133.02,273.64c2.26,0,4.53,0,6.79,0,1.67,0,2.59,.9,2.6,2.57,.01,4.66,.01,9.32,0,13.98,0,1.72-.92,2.62-2.65,2.63-4.56,.01-9.12,.01-13.68,0-1.74,0-2.64-.91-2.64-2.63,0-4.66,0-9.32,0-13.98,0-1.67,.92-2.56,2.59-2.56,2.33,0,4.66,0,6.99,0Z"/>
    <path class="cls-2" d="M133.03,294.02c2.55,0,5.11-.02,7.66,0,1.63,.02,1.73,.15,1.73,1.78,0,.29,0,.58,0,.87,0,1.59-.11,1.77-1.74,1.78-5.17,.03-10.34,.03-15.51,0-1.62-.01-1.73-.19-1.73-1.8,0-.36,0-.71,0-1.07,0-1.36,.13-1.54,1.55-1.56,2.68-.03,5.36,0,8.05,0h0Z"/>
    <path class="cls-2" d="M143.59,288.02c0-1.2,0-2.39,0-3.59,0-.74,.25-1.15,1.08-1.1,.77,.05,1.55,.05,2.32,0,.73-.05,1.04,.32,1.04,.95,.03,2.52,.03,5.04,0,7.56,0,.66-.31,1.08-1.09,1.02-.71-.06-1.43-.06-2.13,0-.98,.09-1.25-.39-1.24-1.26,.02-1.19,0-2.39,0-3.59,0,0,0,0,0,0Z"/>
    <path class="cls-2" d="M122.26,288.13c0,1.2,0,2.39,0,3.59,0,.79-.28,1.21-1.15,1.15-.74-.05-1.49-.05-2.23,0-.72,.05-1.06-.31-1.07-.94-.03-2.55-.03-5.1,0-7.66,0-.63,.33-.99,1.06-.94,.77,.05,1.55,.05,2.32,0,.76-.05,1.06,.3,1.06,1.02,0,1.26,0,2.52,0,3.78,0,0,0,0,0,0Z"/>
  </g>
  <g>
    <path class="cls-2" d="M160.19,273.64c2.26,0,4.53,0,6.79,0,1.67,0,2.59,.9,2.6,2.57,.01,4.66,.01,9.32,0,13.98,0,1.72-.92,2.62-2.65,2.63-4.56,.01-9.12,.01-13.68,0-1.74,0-2.64-.91-2.64-2.63,0-4.66,0-9.32,0-13.98,0-1.67,.92-2.56,2.59-2.56,2.33,0,4.66,0,6.99,0Z"/>
    <path class="cls-2" d="M160.2,294.02c2.55,0,5.11-.02,7.66,0,1.63,.02,1.73,.15,1.73,1.78,0,.29,0,.58,0,.87,0,1.59-.11,1.77-1.74,1.78-5.17,.03-10.34,.03-15.51,0-1.62-.01-1.73-.19-1.73-1.8,0-.36,0-.71,0-1.07,0-1.36,.13-1.54,1.55-1.56,2.68-.03,5.36,0,8.05,0h0Z"/>
    <path class="cls-2" d="M170.76,288.02c0-1.2,0-2.39,0-3.59,0-.74,.25-1.15,1.08-1.1,.77,.05,1.55,.05,2.32,0,.73-.05,1.04,.32,1.04,.95,.03,2.52,.03,5.04,0,7.56,0,.66-.31,1.08-1.09,1.02-.71-.06-1.43-.06-2.13,0-.98,.09-1.25-.39-1.24-1.26,.02-1.19,0-2.39,0-3.59,0,0,0,0,0,0Z"/>
    <path class="cls-2" d="M149.43,288.13c0,1.2,0,2.39,0,3.59,0,.79-.28,1.21-1.15,1.15-.74-.05-1.49-.05-2.23,0-.72,.05-1.06-.31-1.07-.94-.03-2.55-.03-5.1,0-7.66,0-.63,.33-.99,1.06-.94,.77,.05,1.55,.05,2.32,0,.76-.05,1.06,.3,1.06,1.02,0,1.26,0,2.52,0,3.78,0,0,0,0,0,0Z"/>
  </g>
  <g>
    <path class="cls-2" d="M133.02,308.4c2.26,0,4.53,0,6.79,0,1.67,0,2.59,.9,2.6,2.57,.01,4.66,.01,9.32,0,13.98,0,1.72-.92,2.62-2.65,2.63-4.56,.01-9.12,.01-13.68,0-1.74,0-2.64-.91-2.64-2.63,0-4.66,0-9.32,0-13.98,0-1.67,.92-2.56,2.59-2.56,2.33,0,4.66,0,6.99,0Z"/>
    <path class="cls-2" d="M133.03,328.79c2.55,0,5.11-.02,7.66,0,1.63,.02,1.73,.15,1.73,1.78,0,.29,0,.58,0,.87,0,1.59-.11,1.77-1.74,1.78-5.17,.03-10.34,.03-15.51,0-1.62-.01-1.73-.19-1.73-1.8,0-.36,0-.71,0-1.07,0-1.36,.13-1.54,1.55-1.56,2.68-.03,5.36,0,8.05,0h0Z"/>
    <path class="cls-2" d="M143.59,322.78c0-1.2,0-2.39,0-3.59,0-.74,.25-1.15,1.08-1.1,.77,.05,1.55,.05,2.32,0,.73-.05,1.04,.32,1.04,.95,.03,2.52,.03,5.04,0,7.56,0,.66-.31,1.08-1.09,1.02-.71-.06-1.43-.06-2.13,0-.98,.09-1.25-.39-1.24-1.26,.02-1.19,0-2.39,0-3.59,0,0,0,0,0,0Z"/>
    <path class="cls-2" d="M122.26,322.89c0,1.2,0,2.39,0,3.59,0,.79-.28,1.21-1.15,1.15-.74-.05-1.49-.05-2.23,0-.72,.05-1.06-.31-1.07-.94-.03-2.55-.03-5.1,0-7.66,0-.63,.33-.99,1.06-.94,.77,.05,1.55,.05,2.32,0,.76-.05,1.06,.3,1.06,1.02,0,1.26,0,2.52,0,3.78,0,0,0,0,0,0Z"/>
  </g>
  <g>
    <path class="cls-2" d="M160.19,308.4c2.26,0,4.53,0,6.79,0,1.67,0,2.59,.9,2.6,2.57,.01,4.66,.01,9.32,0,13.98,0,1.72-.92,2.62-2.65,2.63-4.56,.01-9.12,.01-13.68,0-1.74,0-2.64-.91-2.64-2.63,0-4.66,0-9.32,0-13.98,0-1.67,.92-2.56,2.59-2.56,2.33,0,4.66,0,6.99,0Z"/>
    <path class="cls-2" d="M160.2,328.79c2.55,0,5.11-.02,7.66,0,1.63,.02,1.73,.15,1.73,1.78,0,.29,0,.58,0,.87,0,1.59-.11,1.77-1.74,1.78-5.17,.03-10.34,.03-15.51,0-1.62-.01-1.73-.19-1.73-1.8,0-.36,0-.71,0-1.07,0-1.36,.13-1.54,1.55-1.56,2.68-.03,5.36,0,8.05,0h0Z"/>
    <path class="cls-2" d="M170.76,322.78c0-1.2,0-2.39,0-3.59,0-.74,.25-1.15,1.08-1.1,.77,.05,1.55,.05,2.32,0,.73-.05,1.04,.32,1.04,.95,.03,2.52,.03,5.04,0,7.56,0,.66-.31,1.08-1.09,1.02-.71-.06-1.43-.06-2.13,0-.98,.09-1.25-.39-1.24-1.26,.02-1.19,0-2.39,0-3.59,0,0,0,0,0,0Z"/>
    <path class="cls-2" d="M149.43,322.89c0,1.2,0,2.39,0,3.59,0,.79-.28,1.21-1.15,1.15-.74-.05-1.49-.05-2.23,0-.72,.05-1.06-.31-1.07-.94-.03-2.55-.03-5.1,0-7.66,0-.63,.33-.99,1.06-.94,.77,.05,1.55,.05,2.32,0,.76-.05,1.06,.3,1.06,1.02,0,1.26,0,2.52,0,3.78,0,0,0,0,0,0Z"/>
  </g>
  <g>
    <path class="cls-2" d="M133.02,343.17c2.26,0,4.53,0,6.79,0,1.67,0,2.59,.9,2.6,2.57,.01,4.66,.01,9.32,0,13.98,0,1.72-.92,2.62-2.65,2.63-4.56,.01-9.12,.01-13.68,0-1.74,0-2.64-.91-2.64-2.63,0-4.66,0-9.32,0-13.98,0-1.67,.92-2.56,2.59-2.56,2.33,0,4.66,0,6.99,0Z"/>
    <path class="cls-2" d="M133.03,363.55c2.55,0,5.11-.02,7.66,0,1.63,.02,1.73,.15,1.73,1.78,0,.29,0,.58,0,.87,0,1.59-.11,1.77-1.74,1.78-5.17,.03-10.34,.03-15.51,0-1.62-.01-1.73-.19-1.73-1.8,0-.36,0-.71,0-1.07,0-1.36,.13-1.54,1.55-1.56,2.68-.03,5.36,0,8.05,0h0Z"/>
    <path class="cls-2" d="M143.59,357.54c0-1.2,0-2.39,0-3.59,0-.74,.25-1.15,1.08-1.1,.77,.05,1.55,.05,2.32,0,.73-.05,1.04,.32,1.04,.95,.03,2.52,.03,5.04,0,7.56,0,.66-.31,1.08-1.09,1.02-.71-.06-1.43-.06-2.13,0-.98,.09-1.25-.39-1.24-1.26,.02-1.19,0-2.39,0-3.59,0,0,0,0,0,0Z"/>
    <path class="cls-2" d="M122.26,357.65c0,1.2,0,2.39,0,3.59,0,.79-.28,1.21-1.15,1.15-.74-.05-1.49-.05-2.23,0-.72,.05-1.06-.31-1.07-.94-.03-2.55-.03-5.1,0-7.66,0-.63,.33-.99,1.06-.94,.77,.05,1.55,.05,2.32,0,.76-.05,1.06,.3,1.06,1.02,0,1.26,0,2.52,0,3.78,0,0,0,0,0,0Z"/>
  </g>
  <g>
    <path class="cls-2" d="M160.19,343.17c2.26,0,4.53,0,6.79,0,1.67,0,2.59,.9,2.6,2.57,.01,4.66,.01,9.32,0,13.98,0,1.72-.92,2.62-2.65,2.63-4.56,.01-9.12,.01-13.68,0-1.74,0-2.64-.91-2.64-2.63,0-4.66,0-9.32,0-13.98,0-1.67,.92-2.56,2.59-2.56,2.33,0,4.66,0,6.99,0Z"/>
    <path class="cls-2" d="M160.2,363.55c2.55,0,5.11-.02,7.66,0,1.63,.02,1.73,.15,1.73,1.78,0,.29,0,.58,0,.87,0,1.59-.11,1.77-1.74,1.78-5.17,.03-10.34,.03-15.51,0-1.62-.01-1.73-.19-1.73-1.8,0-.36,0-.71,0-1.07,0-1.36,.13-1.54,1.55-1.56,2.68-.03,5.36,0,8.05,0h0Z"/>
    <path class="cls-2" d="M170.76,357.54c0-1.2,0-2.39,0-3.59,0-.74,.25-1.15,1.08-1.1,.77,.05,1.55,.05,2.32,0,.73-.05,1.04,.32,1.04,.95,.03,2.52,.03,5.04,0,7.56,0,.66-.31,1.08-1.09,1.02-.71-.06-1.43-.06-2.13,0-.98,.09-1.25-.39-1.24-1.26,.02-1.19,0-2.39,0-3.59,0,0,0,0,0,0Z"/>
    <path class="cls-2" d="M149.43,357.65c0,1.2,0,2.39,0,3.59,0,.79-.28,1.21-1.15,1.15-.74-.05-1.49-.05-2.23,0-.72,.05-1.06-.31-1.07-.94-.03-2.55-.03-5.1,0-7.66,0-.63,.33-.99,1.06-.94,.77,.05,1.55,.05,2.32,0,.76-.05,1.06,.3,1.06,1.02,0,1.26,0,2.52,0,3.78,0,0,0,0,0,0Z"/>
  </g>
  <g>
    <path class="cls-2" d="M133.02,377.93c2.26,0,4.53,0,6.79,0,1.67,0,2.59,.9,2.6,2.57,.01,4.66,.01,9.32,0,13.98,0,1.72-.92,2.62-2.65,2.63-4.56,.01-9.12,.01-13.68,0-1.74,0-2.64-.91-2.64-2.63,0-4.66,0-9.32,0-13.98,0-1.67,.92-2.56,2.59-2.56,2.33,0,4.66,0,6.99,0Z"/>
    <path class="cls-2" d="M133.03,398.31c2.55,0,5.11-.02,7.66,0,1.63,.02,1.73,.15,1.73,1.78,0,.29,0,.58,0,.87,0,1.59-.11,1.77-1.74,1.78-5.17,.03-10.34,.03-15.51,0-1.62-.01-1.73-.19-1.73-1.8,0-.36,0-.71,0-1.07,0-1.36,.13-1.54,1.55-1.56,2.68-.03,5.36,0,8.05,0h0Z"/>
    <path class="cls-2" d="M143.59,392.3c0-1.2,0-2.39,0-3.59,0-.74,.25-1.15,1.08-1.1,.77,.05,1.55,.05,2.32,0,.73-.05,1.04,.32,1.04,.95,.03,2.52,.03,5.04,0,7.56,0,.66-.31,1.08-1.09,1.02-.71-.06-1.43-.06-2.13,0-.98,.09-1.25-.39-1.24-1.26,.02-1.19,0-2.39,0-3.59,0,0,0,0,0,0Z"/>
    <path class="cls-2" d="M122.26,392.41c0,1.2,0,2.39,0,3.59,0,.79-.28,1.21-1.15,1.15-.74-.05-1.49-.05-2.23,0-.72,.05-1.06-.31-1.07-.94-.03-2.55-.03-5.1,0-7.66,0-.63,.33-.99,1.06-.94,.77,.05,1.55,.05,2.32,0,.76-.05,1.06,.3,1.06,1.02,0,1.26,0,2.52,0,3.78,0,0,0,0,0,0Z"/>
  </g>
  <g>
    <path class="cls-2" d="M160.19,377.93c2.26,0,4.53,0,6.79,0,1.67,0,2.59,.9,2.6,2.57,.01,4.66,.01,9.32,0,13.98,0,1.72-.92,2.62-2.65,2.63-4.56,.01-9.12,.01-13.68,0-1.74,0-2.64-.91-2.64-2.63,0-4.66,0-9.32,0-13.98,0-1.67,.92-2.56,2.59-2.56,2.33,0,4.66,0,6.99,0Z"/>
    <path class="cls-2" d="M160.2,398.31c2.55,0,5.11-.02,7.66,0,1.63,.02,1.73,.15,1.73,1.78,0,.29,0,.58,0,.87,0,1.59-.11,1.77-1.74,1.78-5.17,.03-10.34,.03-15.51,0-1.62-.01-1.73-.19-1.73-1.8,0-.36,0-.71,0-1.07,0-1.36,.13-1.54,1.55-1.56,2.68-.03,5.36,0,8.05,0h0Z"/>
    <path class="cls-2" d="M170.76,392.3c0-1.2,0-2.39,0-3.59,0-.74,.25-1.15,1.08-1.1,.77,.05,1.55,.05,2.32,0,.73-.05,1.04,.32,1.04,.95,.03,2.52,.03,5.04,0,7.56,0,.66-.31,1.08-1.09,1.02-.71-.06-1.43-.06-2.13,0-.98,.09-1.25-.39-1.24-1.26,.02-1.19,0-2.39,0-3.59,0,0,0,0,0,0Z"/>
    <path class="cls-2" d="M149.43,392.41c0,1.2,0,2.39,0,3.59,0,.79-.28,1.21-1.15,1.15-.74-.05-1.49-.05-2.23,0-.72,.05-1.06-.31-1.07-.94-.03-2.55-.03-5.1,0-7.66,0-.63,.33-.99,1.06-.94,.77,.05,1.55,.05,2.32,0,.76-.05,1.06,.3,1.06,1.02,0,1.26,0,2.52,0,3.78,0,0,0,0,0,0Z"/>
  </g>
  <g>
    <path class="cls-2" d="M133.02,412.69c2.26,0,4.53,0,6.79,0,1.67,0,2.59,.9,2.6,2.57,.01,4.66,.01,9.32,0,13.98,0,1.72-.92,2.62-2.65,2.63-4.56,.01-9.12,.01-13.68,0-1.74,0-2.64-.91-2.64-2.63,0-4.66,0-9.32,0-13.98,0-1.67,.92-2.56,2.59-2.56,2.33,0,4.66,0,6.99,0Z"/>
    <path class="cls-2" d="M133.03,433.07c2.55,0,5.11-.02,7.66,0,1.63,.02,1.73,.15,1.73,1.78,0,.29,0,.58,0,.87,0,1.59-.11,1.77-1.74,1.78-5.17,.03-10.34,.03-15.51,0-1.62-.01-1.73-.19-1.73-1.8,0-.36,0-.71,0-1.07,0-1.36,.13-1.54,1.55-1.56,2.68-.03,5.36,0,8.05,0h0Z"/>
    <path class="cls-2" d="M143.59,427.06c0-1.2,0-2.39,0-3.59,0-.74,.25-1.15,1.08-1.1,.77,.05,1.55,.05,2.32,0,.73-.05,1.04,.32,1.04,.95,.03,2.52,.03,5.04,0,7.56,0,.66-.31,1.08-1.09,1.02-.71-.06-1.43-.06-2.13,0-.98,.09-1.25-.39-1.24-1.26,.02-1.19,0-2.39,0-3.59,0,0,0,0,0,0Z"/>
    <path class="cls-2" d="M122.26,427.17c0,1.2,0,2.39,0,3.59,0,.79-.28,1.21-1.15,1.15-.74-.05-1.49-.05-2.23,0-.72,.05-1.06-.31-1.07-.94-.03-2.55-.03-5.1,0-7.66,0-.63,.33-.99,1.06-.94,.77,.05,1.55,.05,2.32,0,.76-.05,1.06,.3,1.06,1.02,0,1.26,0,2.52,0,3.78,0,0,0,0,0,0Z"/>
  </g>
  <g>
    <path class="cls-2" d="M160.19,412.69c2.26,0,4.53,0,6.79,0,1.67,0,2.59,.9,2.6,2.57,.01,4.66,.01,9.32,0,13.98,0,1.72-.92,2.62-2.65,2.63-4.56,.01-9.12,.01-13.68,0-1.74,0-2.64-.91-2.64-2.63,0-4.66,0-9.32,0-13.98,0-1.67,.92-2.56,2.59-2.56,2.33,0,4.66,0,6.99,0Z"/>
    <path class="cls-2" d="M160.2,433.07c2.55,0,5.11-.02,7.66,0,1.63,.02,1.73,.15,1.73,1.78,0,.29,0,.58,0,.87,0,1.59-.11,1.77-1.74,1.78-5.17,.03-10.34,.03-15.51,0-1.62-.01-1.73-.19-1.73-1.8,0-.36,0-.71,0-1.07,0-1.36,.13-1.54,1.55-1.56,2.68-.03,5.36,0,8.05,0h0Z"/>
    <path class="cls-2" d="M170.76,427.06c0-1.2,0-2.39,0-3.59,0-.74,.25-1.15,1.08-1.1,.77,.05,1.55,.05,2.32,0,.73-.05,1.04,.32,1.04,.95,.03,2.52,.03,5.04,0,7.56,0,.66-.31,1.08-1.09,1.02-.71-.06-1.43-.06-2.13,0-.98,.09-1.25-.39-1.24-1.26,.02-1.19,0-2.39,0-3.59,0,0,0,0,0,0Z"/>
    <path class="cls-2" d="M149.43,427.17c0,1.2,0,2.39,0,3.59,0,.79-.28,1.21-1.15,1.15-.74-.05-1.49-.05-2.23,0-.72,.05-1.06-.31-1.07-.94-.03-2.55-.03-5.1,0-7.66,0-.63,.33-.99,1.06-.94,.77,.05,1.55,.05,2.32,0,.76-.05,1.06,.3,1.06,1.02,0,1.26,0,2.52,0,3.78,0,0,0,0,0,0Z"/>
  </g>
  <g>
    <path class="cls-2" d="M133.02,447.45c2.26,0,4.53,0,6.79,0,1.67,0,2.59,.9,2.6,2.57,.01,4.66,.01,9.32,0,13.98,0,1.72-.92,2.62-2.65,2.63-4.56,.01-9.12,.01-13.68,0-1.74,0-2.64-.91-2.64-2.63,0-4.66,0-9.32,0-13.98,0-1.67,.92-2.56,2.59-2.56,2.33,0,4.66,0,6.99,0Z"/>
    <path class="cls-2" d="M133.03,467.83c2.55,0,5.11-.02,7.66,0,1.63,.02,1.73,.15,1.73,1.78,0,.29,0,.58,0,.87,0,1.59-.11,1.77-1.74,1.78-5.17,.03-10.34,.03-15.51,0-1.62-.01-1.73-.19-1.73-1.8,0-.36,0-.71,0-1.07,0-1.36,.13-1.54,1.55-1.56,2.68-.03,5.36,0,8.05,0h0Z"/>
    <path class="cls-2" d="M143.59,461.82c0-1.2,0-2.39,0-3.59,0-.74,.25-1.15,1.08-1.1,.77,.05,1.55,.05,2.32,0,.73-.05,1.04,.32,1.04,.95,.03,2.52,.03,5.04,0,7.56,0,.66-.31,1.08-1.09,1.02-.71-.06-1.43-.06-2.13,0-.98,.09-1.25-.39-1.24-1.26,.02-1.19,0-2.39,0-3.59,0,0,0,0,0,0Z"/>
    <path class="cls-2" d="M122.26,461.93c0,1.2,0,2.39,0,3.59,0,.79-.28,1.21-1.15,1.15-.74-.05-1.49-.05-2.23,0-.72,.05-1.06-.31-1.07-.94-.03-2.55-.03-5.1,0-7.66,0-.63,.33-.99,1.06-.94,.77,.05,1.55,.05,2.32,0,.76-.05,1.06,.3,1.06,1.02,0,1.26,0,2.52,0,3.78,0,0,0,0,0,0Z"/>
  </g>
  <g>
    <path class="cls-2" d="M160.19,447.45c2.26,0,4.53,0,6.79,0,1.67,0,2.59,.9,2.6,2.57,.01,4.66,.01,9.32,0,13.98,0,1.72-.92,2.62-2.65,2.63-4.56,.01-9.12,.01-13.68,0-1.74,0-2.64-.91-2.64-2.63,0-4.66,0-9.32,0-13.98,0-1.67,.92-2.56,2.59-2.56,2.33,0,4.66,0,6.99,0Z"/>
    <path class="cls-2" d="M160.2,467.83c2.55,0,5.11-.02,7.66,0,1.63,.02,1.73,.15,1.73,1.78,0,.29,0,.58,0,.87,0,1.59-.11,1.77-1.74,1.78-5.17,.03-10.34,.03-15.51,0-1.62-.01-1.73-.19-1.73-1.8,0-.36,0-.71,0-1.07,0-1.36,.13-1.54,1.55-1.56,2.68-.03,5.36,0,8.05,0h0Z"/>
    <path class="cls-2" d="M170.76,461.82c0-1.2,0-2.39,0-3.59,0-.74,.25-1.15,1.08-1.1,.77,.05,1.55,.05,2.32,0,.73-.05,1.04,.32,1.04,.95,.03,2.52,.03,5.04,0,7.56,0,.66-.31,1.08-1.09,1.02-.71-.06-1.43-.06-2.13,0-.98,.09-1.25-.39-1.24-1.26,.02-1.19,0-2.39,0-3.59,0,0,0,0,0,0Z"/>
    <path class="cls-2" d="M149.43,461.93c0,1.2,0,2.39,0,3.59,0,.79-.28,1.21-1.15,1.15-.74-.05-1.49-.05-2.23,0-.72,.05-1.06-.31-1.07-.94-.03-2.55-.03-5.1,0-7.66,0-.63,.33-.99,1.06-.94,.77,.05,1.55,.05,2.32,0,.76-.05,1.06,.3,1.06,1.02,0,1.26,0,2.52,0,3.78,0,0,0,0,0,0Z"/>
  </g>
  <g>
    <path class="cls-2" d="M133.02,482.21c2.26,0,4.53,0,6.79,0,1.67,0,2.59,.9,2.6,2.57,.01,4.66,.01,9.32,0,13.98,0,1.72-.92,2.62-2.65,2.63-4.56,.01-9.12,.01-13.68,0-1.74,0-2.64-.91-2.64-2.63,0-4.66,0-9.32,0-13.98,0-1.67,.92-2.56,2.59-2.56,2.33,0,4.66,0,6.99,0Z"/>
    <path class="cls-2" d="M133.03,502.59c2.55,0,5.11-.02,7.66,0,1.63,.02,1.73,.15,1.73,1.78,0,.29,0,.58,0,.87,0,1.59-.11,1.77-1.74,1.78-5.17,.03-10.34,.03-15.51,0-1.62-.01-1.73-.19-1.73-1.8,0-.36,0-.71,0-1.07,0-1.36,.13-1.54,1.55-1.56,2.68-.03,5.36,0,8.05,0h0Z"/>
    <path class="cls-2" d="M143.59,496.58c0-1.2,0-2.39,0-3.59,0-.74,.25-1.15,1.08-1.1,.77,.05,1.55,.05,2.32,0,.73-.05,1.04,.32,1.04,.95,.03,2.52,.03,5.04,0,7.56,0,.66-.31,1.08-1.09,1.02-.71-.06-1.43-.06-2.13,0-.98,.09-1.25-.39-1.24-1.26,.02-1.19,0-2.39,0-3.59,0,0,0,0,0,0Z"/>
    <path class="cls-2" d="M122.26,496.69c0,1.2,0,2.39,0,3.59,0,.79-.28,1.21-1.15,1.15-.74-.05-1.49-.05-2.23,0-.72,.05-1.06-.31-1.07-.94-.03-2.55-.03-5.1,0-7.66,0-.63,.33-.99,1.06-.94,.77,.05,1.55,.05,2.32,0,.76-.05,1.06,.3,1.06,1.02,0,1.26,0,2.52,0,3.78,0,0,0,0,0,0Z"/>
  </g>
  <g>
    <path class="cls-2" d="M160.19,482.21c2.26,0,4.53,0,6.79,0,1.67,0,2.59,.9,2.6,2.57,.01,4.66,.01,9.32,0,13.98,0,1.72-.92,2.62-2.65,2.63-4.56,.01-9.12,.01-13.68,0-1.74,0-2.64-.91-2.64-2.63,0-4.66,0-9.32,0-13.98,0-1.67,.92-2.56,2.59-2.56,2.33,0,4.66,0,6.99,0Z"/>
    <path class="cls-2" d="M160.2,502.59c2.55,0,5.11-.02,7.66,0,1.63,.02,1.73,.15,1.73,1.78,0,.29,0,.58,0,.87,0,1.59-.11,1.77-1.74,1.78-5.17,.03-10.34,.03-15.51,0-1.62-.01-1.73-.19-1.73-1.8,0-.36,0-.71,0-1.07,0-1.36,.13-1.54,1.55-1.56,2.68-.03,5.36,0,8.05,0h0Z"/>
    <path class="cls-2" d="M170.76,496.58c0-1.2,0-2.39,0-3.59,0-.74,.25-1.15,1.08-1.1,.77,.05,1.55,.05,2.32,0,.73-.05,1.04,.32,1.04,.95,.03,2.52,.03,5.04,0,7.56,0,.66-.31,1.08-1.09,1.02-.71-.06-1.43-.06-2.13,0-.98,.09-1.25-.39-1.24-1.26,.02-1.19,0-2.39,0-3.59,0,0,0,0,0,0Z"/>
    <path class="cls-2" d="M149.43,496.69c0,1.2,0,2.39,0,3.59,0,.79-.28,1.21-1.15,1.15-.74-.05-1.49-.05-2.23,0-.72,.05-1.06-.31-1.07-.94-.03-2.55-.03-5.1,0-7.66,0-.63,.33-.99,1.06-.94,.77,.05,1.55,.05,2.32,0,.76-.05,1.06,.3,1.06,1.02,0,1.26,0,2.52,0,3.78,0,0,0,0,0,0Z"/>
  </g>
  <g>
    <path class="cls-2" d="M133.02,516.97c2.26,0,4.53,0,6.79,0,1.67,0,2.59,.9,2.6,2.57,.01,4.66,.01,9.32,0,13.98,0,1.72-.92,2.62-2.65,2.63-4.56,.01-9.12,.01-13.68,0-1.74,0-2.64-.91-2.64-2.63,0-4.66,0-9.32,0-13.98,0-1.67,.92-2.56,2.59-2.56,2.33,0,4.66,0,6.99,0Z"/>
    <path class="cls-2" d="M133.03,537.35c2.55,0,5.11-.02,7.66,0,1.63,.02,1.73,.15,1.73,1.78,0,.29,0,.58,0,.87,0,1.59-.11,1.77-1.74,1.78-5.17,.03-10.34,.03-15.51,0-1.62-.01-1.73-.19-1.73-1.8,0-.36,0-.71,0-1.07,0-1.36,.13-1.54,1.55-1.56,2.68-.03,5.36,0,8.05,0h0Z"/>
    <path class="cls-2" d="M143.59,531.34c0-1.2,0-2.39,0-3.59,0-.74,.25-1.15,1.08-1.1,.77,.05,1.55,.05,2.32,0,.73-.05,1.04,.32,1.04,.95,.03,2.52,.03,5.04,0,7.56,0,.66-.31,1.08-1.09,1.02-.71-.06-1.43-.06-2.13,0-.98,.09-1.25-.39-1.24-1.26,.02-1.19,0-2.39,0-3.59,0,0,0,0,0,0Z"/>
    <path class="cls-2" d="M122.26,531.45c0,1.2,0,2.39,0,3.59,0,.79-.28,1.21-1.15,1.15-.74-.05-1.49-.05-2.23,0-.72,.05-1.06-.31-1.07-.94-.03-2.55-.03-5.1,0-7.66,0-.63,.33-.99,1.06-.94,.77,.05,1.55,.05,2.32,0,.76-.05,1.06,.3,1.06,1.02,0,1.26,0,2.52,0,3.78,0,0,0,0,0,0Z"/>
  </g>
  <g>
    <path class="cls-2" d="M160.19,516.97c2.26,0,4.53,0,6.79,0,1.67,0,2.59,.9,2.6,2.57,.01,4.66,.01,9.32,0,13.98,0,1.72-.92,2.62-2.65,2.63-4.56,.01-9.12,.01-13.68,0-1.74,0-2.64-.91-2.64-2.63,0-4.66,0-9.32,0-13.98,0-1.67,.92-2.56,2.59-2.56,2.33,0,4.66,0,6.99,0Z"/>
    <path class="cls-2" d="M160.2,537.35c2.55,0,5.11-.02,7.66,0,1.63,.02,1.73,.15,1.73,1.78,0,.29,0,.58,0,.87,0,1.59-.11,1.77-1.74,1.78-5.17,.03-10.34,.03-15.51,0-1.62-.01-1.73-.19-1.73-1.8,0-.36,0-.71,0-1.07,0-1.36,.13-1.54,1.55-1.56,2.68-.03,5.36,0,8.05,0h0Z"/>
    <path class="cls-2" d="M170.76,531.34c0-1.2,0-2.39,0-3.59,0-.74,.25-1.15,1.08-1.1,.77,.05,1.55,.05,2.32,0,.73-.05,1.04,.32,1.04,.95,.03,2.52,.03,5.04,0,7.56,0,.66-.31,1.08-1.09,1.02-.71-.06-1.43-.06-2.13,0-.98,.09-1.25-.39-1.24-1.26,.02-1.19,0-2.39,0-3.59,0,0,0,0,0,0Z"/>
    <path class="cls-2" d="M149.43,531.45c0,1.2,0,2.39,0,3.59,0,.79-.28,1.21-1.15,1.15-.74-.05-1.49-.05-2.23,0-.72,.05-1.06-.31-1.07-.94-.03-2.55-.03-5.1,0-7.66,0-.63,.33-.99,1.06-.94,.77,.05,1.55,.05,2.32,0,.76-.05,1.06,.3,1.06,1.02,0,1.26,0,2.52,0,3.78,0,0,0,0,0,0Z"/>
  </g>
  <g>
    <path class="cls-2" d="M133.02,551.73c2.26,0,4.53,0,6.79,0,1.67,0,2.59,.9,2.6,2.57,.01,4.66,.01,9.32,0,13.98,0,1.72-.92,2.62-2.65,2.63-4.56,.01-9.12,.01-13.68,0-1.74,0-2.64-.91-2.64-2.63,0-4.66,0-9.32,0-13.98,0-1.67,.92-2.56,2.59-2.56,2.33,0,4.66,0,6.99,0Z"/>
    <path class="cls-2" d="M133.03,572.11c2.55,0,5.11-.02,7.66,0,1.63,.02,1.73,.15,1.73,1.78,0,.29,0,.58,0,.87,0,1.59-.11,1.77-1.74,1.78-5.17,.03-10.34,.03-15.51,0-1.62-.01-1.73-.19-1.73-1.8,0-.36,0-.71,0-1.07,0-1.36,.13-1.54,1.55-1.56,2.68-.03,5.36,0,8.05,0h0Z"/>
    <path class="cls-2" d="M143.59,566.1c0-1.2,0-2.39,0-3.59,0-.74,.25-1.15,1.08-1.1,.77,.05,1.55,.05,2.32,0,.73-.05,1.04,.32,1.04,.95,.03,2.52,.03,5.04,0,7.56,0,.66-.31,1.08-1.09,1.02-.71-.06-1.43-.06-2.13,0-.98,.09-1.25-.39-1.24-1.26,.02-1.19,0-2.39,0-3.59,0,0,0,0,0,0Z"/>
    <path class="cls-2" d="M122.26,566.21c0,1.2,0,2.39,0,3.59,0,.79-.28,1.21-1.15,1.15-.74-.05-1.49-.05-2.23,0-.72,.05-1.06-.31-1.07-.94-.03-2.55-.03-5.1,0-7.66,0-.63,.33-.99,1.06-.94,.77,.05,1.55,.05,2.32,0,.76-.05,1.06,.3,1.06,1.02,0,1.26,0,2.52,0,3.78,0,0,0,0,0,0Z"/>
  </g>
  <g>
    <path class="cls-2" d="M160.19,551.73c2.26,0,4.53,0,6.79,0,1.67,0,2.59,.9,2.6,2.57,.01,4.66,.01,9.32,0,13.98,0,1.72-.92,2.62-2.65,2.63-4.56,.01-9.12,.01-13.68,0-1.74,0-2.64-.91-2.64-2.63,0-4.66,0-9.32,0-13.98,0-1.67,.92-2.56,2.59-2.56,2.33,0,4.66,0,6.99,0Z"/>
    <path class="cls-2" d="M160.2,572.11c2.55,0,5.11-.02,7.66,0,1.63,.02,1.73,.15,1.73,1.78,0,.29,0,.58,0,.87,0,1.59-.11,1.77-1.74,1.78-5.17,.03-10.34,.03-15.51,0-1.62-.01-1.73-.19-1.73-1.8,0-.36,0-.71,0-1.07,0-1.36,.13-1.54,1.55-1.56,2.68-.03,5.36,0,8.05,0h0Z"/>
    <path class="cls-2" d="M170.76,566.1c0-1.2,0-2.39,0-3.59,0-.74,.25-1.15,1.08-1.1,.77,.05,1.55,.05,2.32,0,.73-.05,1.04,.32,1.04,.95,.03,2.52,.03,5.04,0,7.56,0,.66-.31,1.08-1.09,1.02-.71-.06-1.43-.06-2.13,0-.98,.09-1.25-.39-1.24-1.26,.02-1.19,0-2.39,0-3.59,0,0,0,0,0,0Z"/>
    <path class="cls-2" d="M149.43,566.21c0,1.2,0,2.39,0,3.59,0,.79-.28,1.21-1.15,1.15-.74-.05-1.49-.05-2.23,0-.72,.05-1.06-.31-1.07-.94-.03-2.55-.03-5.1,0-7.66,0-.63,.33-.99,1.06-.94,.77,.05,1.55,.05,2.32,0,.76-.05,1.06,.3,1.06,1.02,0,1.26,0,2.52,0,3.78,0,0,0,0,0,0Z"/>
  </g>
  <g>
    <path class="cls-2" d="M49.44,99.84c2.26,0,4.53,0,6.79,0,1.67,0,2.59,.9,2.6,2.57,.01,4.66,.01,9.32,0,13.98,0,1.72-.92,2.62-2.65,2.63-4.56,.01-9.12,.01-13.68,0-1.74,0-2.64-.91-2.64-2.63,0-4.66,0-9.32,0-13.98,0-1.67,.92-2.56,2.59-2.56,2.33,0,4.66,0,6.99,0Z"/>
    <path class="cls-2" d="M49.44,120.22c2.55,0,5.11-.02,7.66,0,1.63,.02,1.73,.15,1.73,1.78,0,.29,0,.58,0,.87,0,1.59-.11,1.77-1.74,1.78-5.17,.03-10.34,.03-15.51,0-1.62-.01-1.73-.19-1.73-1.8,0-.36,0-.71,0-1.07,0-1.36,.13-1.54,1.55-1.56,2.68-.03,5.36,0,8.05,0h0Z"/>
    <path class="cls-2" d="M60,114.21c0-1.2,0-2.39,0-3.59,0-.74,.25-1.15,1.08-1.1,.77,.05,1.55,.05,2.32,0,.73-.05,1.04,.32,1.04,.95,.03,2.52,.03,5.04,0,7.56,0,.66-.31,1.08-1.09,1.02-.71-.06-1.43-.06-2.13,0-.98,.09-1.25-.39-1.24-1.26,.02-1.19,0-2.39,0-3.59,0,0,0,0,0,0Z"/>
    <path class="cls-2" d="M38.68,114.32c0,1.2,0,2.39,0,3.59,0,.79-.28,1.21-1.15,1.15-.74-.05-1.49-.05-2.23,0-.72,.05-1.06-.31-1.07-.94-.03-2.55-.03-5.1,0-7.66,0-.63,.33-.99,1.06-.94,.77,.05,1.55,.05,2.32,0,.76-.05,1.06,.3,1.06,1.02,0,1.26,0,2.52,0,3.78,0,0,0,0,0,0Z"/>
  </g>
  <g>
    <path class="cls-2" d="M76.61,99.84c2.26,0,4.53,0,6.79,0,1.67,0,2.59,.9,2.6,2.57,.01,4.66,.01,9.32,0,13.98,0,1.72-.92,2.62-2.65,2.63-4.56,.01-9.12,.01-13.68,0-1.74,0-2.64-.91-2.64-2.63,0-4.66,0-9.32,0-13.98,0-1.67,.92-2.56,2.59-2.56,2.33,0,4.66,0,6.99,0Z"/>
    <path class="cls-2" d="M76.62,120.22c2.55,0,5.11-.02,7.66,0,1.63,.02,1.73,.15,1.73,1.78,0,.29,0,.58,0,.87,0,1.59-.11,1.77-1.74,1.78-5.17,.03-10.34,.03-15.51,0-1.62-.01-1.73-.19-1.73-1.8,0-.36,0-.71,0-1.07,0-1.36,.13-1.54,1.55-1.56,2.68-.03,5.36,0,8.05,0h0Z"/>
    <path class="cls-2" d="M87.18,114.21c0-1.2,0-2.39,0-3.59,0-.74,.25-1.15,1.08-1.1,.77,.05,1.55,.05,2.32,0,.73-.05,1.04,.32,1.04,.95,.03,2.52,.03,5.04,0,7.56,0,.66-.31,1.08-1.09,1.02-.71-.06-1.43-.06-2.13,0-.98,.09-1.25-.39-1.24-1.26,.02-1.19,0-2.39,0-3.59,0,0,0,0,0,0Z"/>
    <path class="cls-2" d="M65.85,114.32c0,1.2,0,2.39,0,3.59,0,.79-.28,1.21-1.15,1.15-.74-.05-1.49-.05-2.23,0-.72,.05-1.06-.31-1.07-.94-.03-2.55-.03-5.1,0-7.66,0-.63,.33-.99,1.06-.94,.77,.05,1.55,.05,2.32,0,.76-.05,1.06,.3,1.06,1.02,0,1.26,0,2.52,0,3.78,0,0,0,0,0,0Z"/>
  </g>
  <g>
    <path class="cls-2" d="M49.44,134.6c2.26,0,4.53,0,6.79,0,1.67,0,2.59,.9,2.6,2.57,.01,4.66,.01,9.32,0,13.98,0,1.72-.92,2.62-2.65,2.63-4.56,.01-9.12,.01-13.68,0-1.74,0-2.64-.91-2.64-2.63,0-4.66,0-9.32,0-13.98,0-1.67,.92-2.56,2.59-2.56,2.33,0,4.66,0,6.99,0Z"/>
    <path class="cls-2" d="M49.44,154.98c2.55,0,5.11-.02,7.66,0,1.63,.02,1.73,.15,1.73,1.78,0,.29,0,.58,0,.87,0,1.59-.11,1.77-1.74,1.78-5.17,.03-10.34,.03-15.51,0-1.62-.01-1.73-.19-1.73-1.8,0-.36,0-.71,0-1.07,0-1.36,.13-1.54,1.55-1.56,2.68-.03,5.36,0,8.05,0h0Z"/>
    <path class="cls-2" d="M60,148.97c0-1.2,0-2.39,0-3.59,0-.74,.25-1.15,1.08-1.1,.77,.05,1.55,.05,2.32,0,.73-.05,1.04,.32,1.04,.95,.03,2.52,.03,5.04,0,7.56,0,.66-.31,1.08-1.09,1.02-.71-.06-1.43-.06-2.13,0-.98,.09-1.25-.39-1.24-1.26,.02-1.19,0-2.39,0-3.59,0,0,0,0,0,0Z"/>
    <path class="cls-2" d="M38.68,149.09c0,1.2,0,2.39,0,3.59,0,.79-.28,1.21-1.15,1.15-.74-.05-1.49-.05-2.23,0-.72,.05-1.06-.31-1.07-.94-.03-2.55-.03-5.1,0-7.66,0-.63,.33-.99,1.06-.94,.77,.05,1.55,.05,2.32,0,.76-.05,1.06,.3,1.06,1.02,0,1.26,0,2.52,0,3.78,0,0,0,0,0,0Z"/>
  </g>
  <g>
    <path class="cls-2" d="M76.61,134.6c2.26,0,4.53,0,6.79,0,1.67,0,2.59,.9,2.6,2.57,.01,4.66,.01,9.32,0,13.98,0,1.72-.92,2.62-2.65,2.63-4.56,.01-9.12,.01-13.68,0-1.74,0-2.64-.91-2.64-2.63,0-4.66,0-9.32,0-13.98,0-1.67,.92-2.56,2.59-2.56,2.33,0,4.66,0,6.99,0Z"/>
    <path class="cls-2" d="M76.62,154.98c2.55,0,5.11-.02,7.66,0,1.63,.02,1.73,.15,1.73,1.78,0,.29,0,.58,0,.87,0,1.59-.11,1.77-1.74,1.78-5.17,.03-10.34,.03-15.51,0-1.62-.01-1.73-.19-1.73-1.8,0-.36,0-.71,0-1.07,0-1.36,.13-1.54,1.55-1.56,2.68-.03,5.36,0,8.05,0h0Z"/>
    <path class="cls-2" d="M87.18,148.97c0-1.2,0-2.39,0-3.59,0-.74,.25-1.15,1.08-1.1,.77,.05,1.55,.05,2.32,0,.73-.05,1.04,.32,1.04,.95,.03,2.52,.03,5.04,0,7.56,0,.66-.31,1.08-1.09,1.02-.71-.06-1.43-.06-2.13,0-.98,.09-1.25-.39-1.24-1.26,.02-1.19,0-2.39,0-3.59,0,0,0,0,0,0Z"/>
    <path class="cls-2" d="M65.85,149.09c0,1.2,0,2.39,0,3.59,0,.79-.28,1.21-1.15,1.15-.74-.05-1.49-.05-2.23,0-.72,.05-1.06-.31-1.07-.94-.03-2.55-.03-5.1,0-7.66,0-.63,.33-.99,1.06-.94,.77,.05,1.55,.05,2.32,0,.76-.05,1.06,.3,1.06,1.02,0,1.26,0,2.52,0,3.78,0,0,0,0,0,0Z"/>
  </g>
  <g>
    <path class="cls-2" d="M49.44,169.36c2.26,0,4.53,0,6.79,0,1.67,0,2.59,.9,2.6,2.57,.01,4.66,.01,9.32,0,13.98,0,1.72-.92,2.62-2.65,2.63-4.56,.01-9.12,.01-13.68,0-1.74,0-2.64-.91-2.64-2.63,0-4.66,0-9.32,0-13.98,0-1.67,.92-2.56,2.59-2.56,2.33,0,4.66,0,6.99,0Z"/>
    <path class="cls-2" d="M49.44,189.74c2.55,0,5.11-.02,7.66,0,1.63,.02,1.73,.15,1.73,1.78,0,.29,0,.58,0,.87,0,1.59-.11,1.77-1.74,1.78-5.17,.03-10.34,.03-15.51,0-1.62-.01-1.73-.19-1.73-1.8,0-.36,0-.71,0-1.07,0-1.36,.13-1.54,1.55-1.56,2.68-.03,5.36,0,8.05,0h0Z"/>
    <path class="cls-2" d="M60,183.73c0-1.2,0-2.39,0-3.59,0-.74,.25-1.15,1.08-1.1,.77,.05,1.55,.05,2.32,0,.73-.05,1.04,.32,1.04,.95,.03,2.52,.03,5.04,0,7.56,0,.66-.31,1.08-1.09,1.02-.71-.06-1.43-.06-2.13,0-.98,.09-1.25-.39-1.24-1.26,.02-1.19,0-2.39,0-3.59,0,0,0,0,0,0Z"/>
    <path class="cls-2" d="M38.68,183.85c0,1.2,0,2.39,0,3.59,0,.79-.28,1.21-1.15,1.15-.74-.05-1.49-.05-2.23,0-.72,.05-1.06-.31-1.07-.94-.03-2.55-.03-5.1,0-7.66,0-.63,.33-.99,1.06-.94,.77,.05,1.55,.05,2.32,0,.76-.05,1.06,.3,1.06,1.02,0,1.26,0,2.52,0,3.78,0,0,0,0,0,0Z"/>
  </g>
  <g>
    <path class="cls-2" d="M76.61,169.36c2.26,0,4.53,0,6.79,0,1.67,0,2.59,.9,2.6,2.57,.01,4.66,.01,9.32,0,13.98,0,1.72-.92,2.62-2.65,2.63-4.56,.01-9.12,.01-13.68,0-1.74,0-2.64-.91-2.64-2.63,0-4.66,0-9.32,0-13.98,0-1.67,.92-2.56,2.59-2.56,2.33,0,4.66,0,6.99,0Z"/>
    <path class="cls-2" d="M76.62,189.74c2.55,0,5.11-.02,7.66,0,1.63,.02,1.73,.15,1.73,1.78,0,.29,0,.58,0,.87,0,1.59-.11,1.77-1.74,1.78-5.17,.03-10.34,.03-15.51,0-1.62-.01-1.73-.19-1.73-1.8,0-.36,0-.71,0-1.07,0-1.36,.13-1.54,1.55-1.56,2.68-.03,5.36,0,8.05,0h0Z"/>
    <path class="cls-2" d="M87.18,183.73c0-1.2,0-2.39,0-3.59,0-.74,.25-1.15,1.08-1.1,.77,.05,1.55,.05,2.32,0,.73-.05,1.04,.32,1.04,.95,.03,2.52,.03,5.04,0,7.56,0,.66-.31,1.08-1.09,1.02-.71-.06-1.43-.06-2.13,0-.98,.09-1.25-.39-1.24-1.26,.02-1.19,0-2.39,0-3.59,0,0,0,0,0,0Z"/>
    <path class="cls-2" d="M65.85,183.85c0,1.2,0,2.39,0,3.59,0,.79-.28,1.21-1.15,1.15-.74-.05-1.49-.05-2.23,0-.72,.05-1.06-.31-1.07-.94-.03-2.55-.03-5.1,0-7.66,0-.63,.33-.99,1.06-.94,.77,.05,1.55,.05,2.32,0,.76-.05,1.06,.3,1.06,1.02,0,1.26,0,2.52,0,3.78,0,0,0,0,0,0Z"/>
  </g>
  <g>
    <path class="cls-2" d="M49.44,204.12c2.26,0,4.53,0,6.79,0,1.67,0,2.59,.9,2.6,2.57,.01,4.66,.01,9.32,0,13.98,0,1.72-.92,2.62-2.65,2.63-4.56,.01-9.12,.01-13.68,0-1.74,0-2.64-.91-2.64-2.63,0-4.66,0-9.32,0-13.98,0-1.67,.92-2.56,2.59-2.56,2.33,0,4.66,0,6.99,0Z"/>
    <path class="cls-2" d="M49.44,224.5c2.55,0,5.11-.02,7.66,0,1.63,.02,1.73,.15,1.73,1.78,0,.29,0,.58,0,.87,0,1.59-.11,1.77-1.74,1.78-5.17,.03-10.34,.03-15.51,0-1.62-.01-1.73-.19-1.73-1.8,0-.36,0-.71,0-1.07,0-1.36,.13-1.54,1.55-1.56,2.68-.03,5.36,0,8.05,0h0Z"/>
    <path class="cls-2" d="M60,218.5c0-1.2,0-2.39,0-3.59,0-.74,.25-1.15,1.08-1.1,.77,.05,1.55,.05,2.32,0,.73-.05,1.04,.32,1.04,.95,.03,2.52,.03,5.04,0,7.56,0,.66-.31,1.08-1.09,1.02-.71-.06-1.43-.06-2.13,0-.98,.09-1.25-.39-1.24-1.26,.02-1.19,0-2.39,0-3.59,0,0,0,0,0,0Z"/>
    <path class="cls-2" d="M38.68,218.61c0,1.2,0,2.39,0,3.59,0,.79-.28,1.21-1.15,1.15-.74-.05-1.49-.05-2.23,0-.72,.05-1.06-.31-1.07-.94-.03-2.55-.03-5.1,0-7.66,0-.63,.33-.99,1.06-.94,.77,.05,1.55,.05,2.32,0,.76-.05,1.06,.3,1.06,1.02,0,1.26,0,2.52,0,3.78,0,0,0,0,0,0Z"/>
  </g>
  <g>
    <path class="cls-2" d="M76.61,204.12c2.26,0,4.53,0,6.79,0,1.67,0,2.59,.9,2.6,2.57,.01,4.66,.01,9.32,0,13.98,0,1.72-.92,2.62-2.65,2.63-4.56,.01-9.12,.01-13.68,0-1.74,0-2.64-.91-2.64-2.63,0-4.66,0-9.32,0-13.98,0-1.67,.92-2.56,2.59-2.56,2.33,0,4.66,0,6.99,0Z"/>
    <path class="cls-2" d="M76.62,224.5c2.55,0,5.11-.02,7.66,0,1.63,.02,1.73,.15,1.73,1.78,0,.29,0,.58,0,.87,0,1.59-.11,1.77-1.74,1.78-5.17,.03-10.34,.03-15.51,0-1.62-.01-1.73-.19-1.73-1.8,0-.36,0-.71,0-1.07,0-1.36,.13-1.54,1.55-1.56,2.68-.03,5.36,0,8.05,0h0Z"/>
    <path class="cls-2" d="M87.18,218.5c0-1.2,0-2.39,0-3.59,0-.74,.25-1.15,1.08-1.1,.77,.05,1.55,.05,2.32,0,.73-.05,1.04,.32,1.04,.95,.03,2.52,.03,5.04,0,7.56,0,.66-.31,1.08-1.09,1.02-.71-.06-1.43-.06-2.13,0-.98,.09-1.25-.39-1.24-1.26,.02-1.19,0-2.39,0-3.59,0,0,0,0,0,0Z"/>
    <path class="cls-2" d="M65.85,218.61c0,1.2,0,2.39,0,3.59,0,.79-.28,1.21-1.15,1.15-.74-.05-1.49-.05-2.23,0-.72,.05-1.06-.31-1.07-.94-.03-2.55-.03-5.1,0-7.66,0-.63,.33-.99,1.06-.94,.77,.05,1.55,.05,2.32,0,.76-.05,1.06,.3,1.06,1.02,0,1.26,0,2.52,0,3.78,0,0,0,0,0,0Z"/>
  </g>
  <g>
    <path class="cls-2" d="M49.44,238.88c2.26,0,4.53,0,6.79,0,1.67,0,2.59,.9,2.6,2.57,.01,4.66,.01,9.32,0,13.98,0,1.72-.92,2.62-2.65,2.63-4.56,.01-9.12,.01-13.68,0-1.74,0-2.64-.91-2.64-2.63,0-4.66,0-9.32,0-13.98,0-1.67,.92-2.56,2.59-2.56,2.33,0,4.66,0,6.99,0Z"/>
    <path class="cls-2" d="M49.44,259.26c2.55,0,5.11-.02,7.66,0,1.63,.02,1.73,.15,1.73,1.78,0,.29,0,.58,0,.87,0,1.59-.11,1.77-1.74,1.78-5.17,.03-10.34,.03-15.51,0-1.62-.01-1.73-.19-1.73-1.8,0-.36,0-.71,0-1.07,0-1.36,.13-1.54,1.55-1.56,2.68-.03,5.36,0,8.05,0h0Z"/>
    <path class="cls-2" d="M60,253.26c0-1.2,0-2.39,0-3.59,0-.74,.25-1.15,1.08-1.1,.77,.05,1.55,.05,2.32,0,.73-.05,1.04,.32,1.04,.95,.03,2.52,.03,5.04,0,7.56,0,.66-.31,1.08-1.09,1.02-.71-.06-1.43-.06-2.13,0-.98,.09-1.25-.39-1.24-1.26,.02-1.19,0-2.39,0-3.59,0,0,0,0,0,0Z"/>
    <path class="cls-2" d="M38.68,253.37c0,1.2,0,2.39,0,3.59,0,.79-.28,1.21-1.15,1.15-.74-.05-1.49-.05-2.23,0-.72,.05-1.06-.31-1.07-.94-.03-2.55-.03-5.1,0-7.66,0-.63,.33-.99,1.06-.94,.77,.05,1.55,.05,2.32,0,.76-.05,1.06,.3,1.06,1.02,0,1.26,0,2.52,0,3.78,0,0,0,0,0,0Z"/>
  </g>
  <g>
    <path class="cls-2" d="M76.61,238.88c2.26,0,4.53,0,6.79,0,1.67,0,2.59,.9,2.6,2.57,.01,4.66,.01,9.32,0,13.98,0,1.72-.92,2.62-2.65,2.63-4.56,.01-9.12,.01-13.68,0-1.74,0-2.64-.91-2.64-2.63,0-4.66,0-9.32,0-13.98,0-1.67,.92-2.56,2.59-2.56,2.33,0,4.66,0,6.99,0Z"/>
    <path class="cls-2" d="M76.62,259.26c2.55,0,5.11-.02,7.66,0,1.63,.02,1.73,.15,1.73,1.78,0,.29,0,.58,0,.87,0,1.59-.11,1.77-1.74,1.78-5.17,.03-10.34,.03-15.51,0-1.62-.01-1.73-.19-1.73-1.8,0-.36,0-.71,0-1.07,0-1.36,.13-1.54,1.55-1.56,2.68-.03,5.36,0,8.05,0h0Z"/>
    <path class="cls-2" d="M87.18,253.26c0-1.2,0-2.39,0-3.59,0-.74,.25-1.15,1.08-1.1,.77,.05,1.55,.05,2.32,0,.73-.05,1.04,.32,1.04,.95,.03,2.52,.03,5.04,0,7.56,0,.66-.31,1.08-1.09,1.02-.71-.06-1.43-.06-2.13,0-.98,.09-1.25-.39-1.24-1.26,.02-1.19,0-2.39,0-3.59,0,0,0,0,0,0Z"/>
    <path class="cls-2" d="M65.85,253.37c0,1.2,0,2.39,0,3.59,0,.79-.28,1.21-1.15,1.15-.74-.05-1.49-.05-2.23,0-.72,.05-1.06-.31-1.07-.94-.03-2.55-.03-5.1,0-7.66,0-.63,.33-.99,1.06-.94,.77,.05,1.55,.05,2.32,0,.76-.05,1.06,.3,1.06,1.02,0,1.26,0,2.52,0,3.78,0,0,0,0,0,0Z"/>
  </g>
  <g>
    <path class="cls-2" d="M49.44,273.64c2.26,0,4.53,0,6.79,0,1.67,0,2.59,.9,2.6,2.57,.01,4.66,.01,9.32,0,13.98,0,1.72-.92,2.62-2.65,2.63-4.56,.01-9.12,.01-13.68,0-1.74,0-2.64-.91-2.64-2.63,0-4.66,0-9.32,0-13.98,0-1.67,.92-2.56,2.59-2.56,2.33,0,4.66,0,6.99,0Z"/>
    <path class="cls-2" d="M49.44,294.02c2.55,0,5.11-.02,7.66,0,1.63,.02,1.73,.15,1.73,1.78,0,.29,0,.58,0,.87,0,1.59-.11,1.77-1.74,1.78-5.17,.03-10.34,.03-15.51,0-1.62-.01-1.73-.19-1.73-1.8,0-.36,0-.71,0-1.07,0-1.36,.13-1.54,1.55-1.56,2.68-.03,5.36,0,8.05,0h0Z"/>
    <path class="cls-2" d="M60,288.02c0-1.2,0-2.39,0-3.59,0-.74,.25-1.15,1.08-1.1,.77,.05,1.55,.05,2.32,0,.73-.05,1.04,.32,1.04,.95,.03,2.52,.03,5.04,0,7.56,0,.66-.31,1.08-1.09,1.02-.71-.06-1.43-.06-2.13,0-.98,.09-1.25-.39-1.24-1.26,.02-1.19,0-2.39,0-3.59,0,0,0,0,0,0Z"/>
    <path class="cls-2" d="M38.68,288.13c0,1.2,0,2.39,0,3.59,0,.79-.28,1.21-1.15,1.15-.74-.05-1.49-.05-2.23,0-.72,.05-1.06-.31-1.07-.94-.03-2.55-.03-5.1,0-7.66,0-.63,.33-.99,1.06-.94,.77,.05,1.55,.05,2.32,0,.76-.05,1.06,.3,1.06,1.02,0,1.26,0,2.52,0,3.78,0,0,0,0,0,0Z"/>
  </g>
  <g>
    <path class="cls-2" d="M76.61,273.64c2.26,0,4.53,0,6.79,0,1.67,0,2.59,.9,2.6,2.57,.01,4.66,.01,9.32,0,13.98,0,1.72-.92,2.62-2.65,2.63-4.56,.01-9.12,.01-13.68,0-1.74,0-2.64-.91-2.64-2.63,0-4.66,0-9.32,0-13.98,0-1.67,.92-2.56,2.59-2.56,2.33,0,4.66,0,6.99,0Z"/>
    <path class="cls-2" d="M76.62,294.02c2.55,0,5.11-.02,7.66,0,1.63,.02,1.73,.15,1.73,1.78,0,.29,0,.58,0,.87,0,1.59-.11,1.77-1.74,1.78-5.17,.03-10.34,.03-15.51,0-1.62-.01-1.73-.19-1.73-1.8,0-.36,0-.71,0-1.07,0-1.36,.13-1.54,1.55-1.56,2.68-.03,5.36,0,8.05,0h0Z"/>
    <path class="cls-2" d="M87.18,288.02c0-1.2,0-2.39,0-3.59,0-.74,.25-1.15,1.08-1.1,.77,.05,1.55,.05,2.32,0,.73-.05,1.04,.32,1.04,.95,.03,2.52,.03,5.04,0,7.56,0,.66-.31,1.08-1.09,1.02-.71-.06-1.43-.06-2.13,0-.98,.09-1.25-.39-1.24-1.26,.02-1.19,0-2.39,0-3.59,0,0,0,0,0,0Z"/>
    <path class="cls-2" d="M65.85,288.13c0,1.2,0,2.39,0,3.59,0,.79-.28,1.21-1.15,1.15-.74-.05-1.49-.05-2.23,0-.72,.05-1.06-.31-1.07-.94-.03-2.55-.03-5.1,0-7.66,0-.63,.33-.99,1.06-.94,.77,.05,1.55,.05,2.32,0,.76-.05,1.06,.3,1.06,1.02,0,1.26,0,2.52,0,3.78,0,0,0,0,0,0Z"/>
  </g>
  <g>
    <path class="cls-2" d="M49.44,308.4c2.26,0,4.53,0,6.79,0,1.67,0,2.59,.9,2.6,2.57,.01,4.66,.01,9.32,0,13.98,0,1.72-.92,2.62-2.65,2.63-4.56,.01-9.12,.01-13.68,0-1.74,0-2.64-.91-2.64-2.63,0-4.66,0-9.32,0-13.98,0-1.67,.92-2.56,2.59-2.56,2.33,0,4.66,0,6.99,0Z"/>
    <path class="cls-2" d="M49.44,328.79c2.55,0,5.11-.02,7.66,0,1.63,.02,1.73,.15,1.73,1.78,0,.29,0,.58,0,.87,0,1.59-.11,1.77-1.74,1.78-5.17,.03-10.34,.03-15.51,0-1.62-.01-1.73-.19-1.73-1.8,0-.36,0-.71,0-1.07,0-1.36,.13-1.54,1.55-1.56,2.68-.03,5.36,0,8.05,0h0Z"/>
    <path class="cls-2" d="M60,322.78c0-1.2,0-2.39,0-3.59,0-.74,.25-1.15,1.08-1.1,.77,.05,1.55,.05,2.32,0,.73-.05,1.04,.32,1.04,.95,.03,2.52,.03,5.04,0,7.56,0,.66-.31,1.08-1.09,1.02-.71-.06-1.43-.06-2.13,0-.98,.09-1.25-.39-1.24-1.26,.02-1.19,0-2.39,0-3.59,0,0,0,0,0,0Z"/>
    <path class="cls-2" d="M38.68,322.89c0,1.2,0,2.39,0,3.59,0,.79-.28,1.21-1.15,1.15-.74-.05-1.49-.05-2.23,0-.72,.05-1.06-.31-1.07-.94-.03-2.55-.03-5.1,0-7.66,0-.63,.33-.99,1.06-.94,.77,.05,1.55,.05,2.32,0,.76-.05,1.06,.3,1.06,1.02,0,1.26,0,2.52,0,3.78,0,0,0,0,0,0Z"/>
  </g>
  <g>
    <path class="cls-2" d="M76.61,308.4c2.26,0,4.53,0,6.79,0,1.67,0,2.59,.9,2.6,2.57,.01,4.66,.01,9.32,0,13.98,0,1.72-.92,2.62-2.65,2.63-4.56,.01-9.12,.01-13.68,0-1.74,0-2.64-.91-2.64-2.63,0-4.66,0-9.32,0-13.98,0-1.67,.92-2.56,2.59-2.56,2.33,0,4.66,0,6.99,0Z"/>
    <path class="cls-2" d="M76.62,328.79c2.55,0,5.11-.02,7.66,0,1.63,.02,1.73,.15,1.73,1.78,0,.29,0,.58,0,.87,0,1.59-.11,1.77-1.74,1.78-5.17,.03-10.34,.03-15.51,0-1.62-.01-1.73-.19-1.73-1.8,0-.36,0-.71,0-1.07,0-1.36,.13-1.54,1.55-1.56,2.68-.03,5.36,0,8.05,0h0Z"/>
    <path class="cls-2" d="M87.18,322.78c0-1.2,0-2.39,0-3.59,0-.74,.25-1.15,1.08-1.1,.77,.05,1.55,.05,2.32,0,.73-.05,1.04,.32,1.04,.95,.03,2.52,.03,5.04,0,7.56,0,.66-.31,1.08-1.09,1.02-.71-.06-1.43-.06-2.13,0-.98,.09-1.25-.39-1.24-1.26,.02-1.19,0-2.39,0-3.59,0,0,0,0,0,0Z"/>
    <path class="cls-2" d="M65.85,322.89c0,1.2,0,2.39,0,3.59,0,.79-.28,1.21-1.15,1.15-.74-.05-1.49-.05-2.23,0-.72,.05-1.06-.31-1.07-.94-.03-2.55-.03-5.1,0-7.66,0-.63,.33-.99,1.06-.94,.77,.05,1.55,.05,2.32,0,.76-.05,1.06,.3,1.06,1.02,0,1.26,0,2.52,0,3.78,0,0,0,0,0,0Z"/>
  </g>
  <g>
    <path class="cls-2" d="M49.44,343.17c2.26,0,4.53,0,6.79,0,1.67,0,2.59,.9,2.6,2.57,.01,4.66,.01,9.32,0,13.98,0,1.72-.92,2.62-2.65,2.63-4.56,.01-9.12,.01-13.68,0-1.74,0-2.64-.91-2.64-2.63,0-4.66,0-9.32,0-13.98,0-1.67,.92-2.56,2.59-2.56,2.33,0,4.66,0,6.99,0Z"/>
    <path class="cls-2" d="M49.44,363.55c2.55,0,5.11-.02,7.66,0,1.63,.02,1.73,.15,1.73,1.78,0,.29,0,.58,0,.87,0,1.59-.11,1.77-1.74,1.78-5.17,.03-10.34,.03-15.51,0-1.62-.01-1.73-.19-1.73-1.8,0-.36,0-.71,0-1.07,0-1.36,.13-1.54,1.55-1.56,2.68-.03,5.36,0,8.05,0h0Z"/>
    <path class="cls-2" d="M60,357.54c0-1.2,0-2.39,0-3.59,0-.74,.25-1.15,1.08-1.1,.77,.05,1.55,.05,2.32,0,.73-.05,1.04,.32,1.04,.95,.03,2.52,.03,5.04,0,7.56,0,.66-.31,1.08-1.09,1.02-.71-.06-1.43-.06-2.13,0-.98,.09-1.25-.39-1.24-1.26,.02-1.19,0-2.39,0-3.59,0,0,0,0,0,0Z"/>
    <path class="cls-2" d="M38.68,357.65c0,1.2,0,2.39,0,3.59,0,.79-.28,1.21-1.15,1.15-.74-.05-1.49-.05-2.23,0-.72,.05-1.06-.31-1.07-.94-.03-2.55-.03-5.1,0-7.66,0-.63,.33-.99,1.06-.94,.77,.05,1.55,.05,2.32,0,.76-.05,1.06,.3,1.06,1.02,0,1.26,0,2.52,0,3.78,0,0,0,0,0,0Z"/>
  </g>
  <g>
    <path class="cls-2" d="M76.61,343.17c2.26,0,4.53,0,6.79,0,1.67,0,2.59,.9,2.6,2.57,.01,4.66,.01,9.32,0,13.98,0,1.72-.92,2.62-2.65,2.63-4.56,.01-9.12,.01-13.68,0-1.74,0-2.64-.91-2.64-2.63,0-4.66,0-9.32,0-13.98,0-1.67,.92-2.56,2.59-2.56,2.33,0,4.66,0,6.99,0Z"/>
    <path class="cls-2" d="M76.62,363.55c2.55,0,5.11-.02,7.66,0,1.63,.02,1.73,.15,1.73,1.78,0,.29,0,.58,0,.87,0,1.59-.11,1.77-1.74,1.78-5.17,.03-10.34,.03-15.51,0-1.62-.01-1.73-.19-1.73-1.8,0-.36,0-.71,0-1.07,0-1.36,.13-1.54,1.55-1.56,2.68-.03,5.36,0,8.05,0h0Z"/>
    <path class="cls-2" d="M87.18,357.54c0-1.2,0-2.39,0-3.59,0-.74,.25-1.15,1.08-1.1,.77,.05,1.55,.05,2.32,0,.73-.05,1.04,.32,1.04,.95,.03,2.52,.03,5.04,0,7.56,0,.66-.31,1.08-1.09,1.02-.71-.06-1.43-.06-2.13,0-.98,.09-1.25-.39-1.24-1.26,.02-1.19,0-2.39,0-3.59,0,0,0,0,0,0Z"/>
    <path class="cls-2" d="M65.85,357.65c0,1.2,0,2.39,0,3.59,0,.79-.28,1.21-1.15,1.15-.74-.05-1.49-.05-2.23,0-.72,.05-1.06-.31-1.07-.94-.03-2.55-.03-5.1,0-7.66,0-.63,.33-.99,1.06-.94,.77,.05,1.55,.05,2.32,0,.76-.05,1.06,.3,1.06,1.02,0,1.26,0,2.52,0,3.78,0,0,0,0,0,0Z"/>
  </g>
  <g>
    <path class="cls-2" d="M49.44,377.93c2.26,0,4.53,0,6.79,0,1.67,0,2.59,.9,2.6,2.57,.01,4.66,.01,9.32,0,13.98,0,1.72-.92,2.62-2.65,2.63-4.56,.01-9.12,.01-13.68,0-1.74,0-2.64-.91-2.64-2.63,0-4.66,0-9.32,0-13.98,0-1.67,.92-2.56,2.59-2.56,2.33,0,4.66,0,6.99,0Z"/>
    <path class="cls-2" d="M49.44,398.31c2.55,0,5.11-.02,7.66,0,1.63,.02,1.73,.15,1.73,1.78,0,.29,0,.58,0,.87,0,1.59-.11,1.77-1.74,1.78-5.17,.03-10.34,.03-15.51,0-1.62-.01-1.73-.19-1.73-1.8,0-.36,0-.71,0-1.07,0-1.36,.13-1.54,1.55-1.56,2.68-.03,5.36,0,8.05,0h0Z"/>
    <path class="cls-2" d="M60,392.3c0-1.2,0-2.39,0-3.59,0-.74,.25-1.15,1.08-1.1,.77,.05,1.55,.05,2.32,0,.73-.05,1.04,.32,1.04,.95,.03,2.52,.03,5.04,0,7.56,0,.66-.31,1.08-1.09,1.02-.71-.06-1.43-.06-2.13,0-.98,.09-1.25-.39-1.24-1.26,.02-1.19,0-2.39,0-3.59,0,0,0,0,0,0Z"/>
    <path class="cls-2" d="M38.68,392.41c0,1.2,0,2.39,0,3.59,0,.79-.28,1.21-1.15,1.15-.74-.05-1.49-.05-2.23,0-.72,.05-1.06-.31-1.07-.94-.03-2.55-.03-5.1,0-7.66,0-.63,.33-.99,1.06-.94,.77,.05,1.55,.05,2.32,0,.76-.05,1.06,.3,1.06,1.02,0,1.26,0,2.52,0,3.78,0,0,0,0,0,0Z"/>
  </g>
  <g>
    <path class="cls-2" d="M76.61,377.93c2.26,0,4.53,0,6.79,0,1.67,0,2.59,.9,2.6,2.57,.01,4.66,.01,9.32,0,13.98,0,1.72-.92,2.62-2.65,2.63-4.56,.01-9.12,.01-13.68,0-1.74,0-2.64-.91-2.64-2.63,0-4.66,0-9.32,0-13.98,0-1.67,.92-2.56,2.59-2.56,2.33,0,4.66,0,6.99,0Z"/>
    <path class="cls-2" d="M76.62,398.31c2.55,0,5.11-.02,7.66,0,1.63,.02,1.73,.15,1.73,1.78,0,.29,0,.58,0,.87,0,1.59-.11,1.77-1.74,1.78-5.17,.03-10.34,.03-15.51,0-1.62-.01-1.73-.19-1.73-1.8,0-.36,0-.71,0-1.07,0-1.36,.13-1.54,1.55-1.56,2.68-.03,5.36,0,8.05,0h0Z"/>
    <path class="cls-2" d="M87.18,392.3c0-1.2,0-2.39,0-3.59,0-.74,.25-1.15,1.08-1.1,.77,.05,1.55,.05,2.32,0,.73-.05,1.04,.32,1.04,.95,.03,2.52,.03,5.04,0,7.56,0,.66-.31,1.08-1.09,1.02-.71-.06-1.43-.06-2.13,0-.98,.09-1.25-.39-1.24-1.26,.02-1.19,0-2.39,0-3.59,0,0,0,0,0,0Z"/>
    <path class="cls-2" d="M65.85,392.41c0,1.2,0,2.39,0,3.59,0,.79-.28,1.21-1.15,1.15-.74-.05-1.49-.05-2.23,0-.72,.05-1.06-.31-1.07-.94-.03-2.55-.03-5.1,0-7.66,0-.63,.33-.99,1.06-.94,.77,.05,1.55,.05,2.32,0,.76-.05,1.06,.3,1.06,1.02,0,1.26,0,2.52,0,3.78,0,0,0,0,0,0Z"/>
  </g>
  <g>
    <path class="cls-2" d="M49.44,412.69c2.26,0,4.53,0,6.79,0,1.67,0,2.59,.9,2.6,2.57,.01,4.66,.01,9.32,0,13.98,0,1.72-.92,2.62-2.65,2.63-4.56,.01-9.12,.01-13.68,0-1.74,0-2.64-.91-2.64-2.63,0-4.66,0-9.32,0-13.98,0-1.67,.92-2.56,2.59-2.56,2.33,0,4.66,0,6.99,0Z"/>
    <path class="cls-2" d="M49.44,433.07c2.55,0,5.11-.02,7.66,0,1.63,.02,1.73,.15,1.73,1.78,0,.29,0,.58,0,.87,0,1.59-.11,1.77-1.74,1.78-5.17,.03-10.34,.03-15.51,0-1.62-.01-1.73-.19-1.73-1.8,0-.36,0-.71,0-1.07,0-1.36,.13-1.54,1.55-1.56,2.68-.03,5.36,0,8.05,0h0Z"/>
    <path class="cls-2" d="M60,427.06c0-1.2,0-2.39,0-3.59,0-.74,.25-1.15,1.08-1.1,.77,.05,1.55,.05,2.32,0,.73-.05,1.04,.32,1.04,.95,.03,2.52,.03,5.04,0,7.56,0,.66-.31,1.08-1.09,1.02-.71-.06-1.43-.06-2.13,0-.98,.09-1.25-.39-1.24-1.26,.02-1.19,0-2.39,0-3.59,0,0,0,0,0,0Z"/>
    <path class="cls-2" d="M38.68,427.17c0,1.2,0,2.39,0,3.59,0,.79-.28,1.21-1.15,1.15-.74-.05-1.49-.05-2.23,0-.72,.05-1.06-.31-1.07-.94-.03-2.55-.03-5.1,0-7.66,0-.63,.33-.99,1.06-.94,.77,.05,1.55,.05,2.32,0,.76-.05,1.06,.3,1.06,1.02,0,1.26,0,2.52,0,3.78,0,0,0,0,0,0Z"/>
  </g>
  <g>
    <path class="cls-2" d="M76.61,412.69c2.26,0,4.53,0,6.79,0,1.67,0,2.59,.9,2.6,2.57,.01,4.66,.01,9.32,0,13.98,0,1.72-.92,2.62-2.65,2.63-4.56,.01-9.12,.01-13.68,0-1.74,0-2.64-.91-2.64-2.63,0-4.66,0-9.32,0-13.98,0-1.67,.92-2.56,2.59-2.56,2.33,0,4.66,0,6.99,0Z"/>
    <path class="cls-2" d="M76.62,433.07c2.55,0,5.11-.02,7.66,0,1.63,.02,1.73,.15,1.73,1.78,0,.29,0,.58,0,.87,0,1.59-.11,1.77-1.74,1.78-5.17,.03-10.34,.03-15.51,0-1.62-.01-1.73-.19-1.73-1.8,0-.36,0-.71,0-1.07,0-1.36,.13-1.54,1.55-1.56,2.68-.03,5.36,0,8.05,0h0Z"/>
    <path class="cls-2" d="M87.18,427.06c0-1.2,0-2.39,0-3.59,0-.74,.25-1.15,1.08-1.1,.77,.05,1.55,.05,2.32,0,.73-.05,1.04,.32,1.04,.95,.03,2.52,.03,5.04,0,7.56,0,.66-.31,1.08-1.09,1.02-.71-.06-1.43-.06-2.13,0-.98,.09-1.25-.39-1.24-1.26,.02-1.19,0-2.39,0-3.59,0,0,0,0,0,0Z"/>
    <path class="cls-2" d="M65.85,427.17c0,1.2,0,2.39,0,3.59,0,.79-.28,1.21-1.15,1.15-.74-.05-1.49-.05-2.23,0-.72,.05-1.06-.31-1.07-.94-.03-2.55-.03-5.1,0-7.66,0-.63,.33-.99,1.06-.94,.77,.05,1.55,.05,2.32,0,.76-.05,1.06,.3,1.06,1.02,0,1.26,0,2.52,0,3.78,0,0,0,0,0,0Z"/>
  </g>
  <g>
    <path class="cls-2" d="M49.44,447.45c2.26,0,4.53,0,6.79,0,1.67,0,2.59,.9,2.6,2.57,.01,4.66,.01,9.32,0,13.98,0,1.72-.92,2.62-2.65,2.63-4.56,.01-9.12,.01-13.68,0-1.74,0-2.64-.91-2.64-2.63,0-4.66,0-9.32,0-13.98,0-1.67,.92-2.56,2.59-2.56,2.33,0,4.66,0,6.99,0Z"/>
    <path class="cls-2" d="M49.44,467.83c2.55,0,5.11-.02,7.66,0,1.63,.02,1.73,.15,1.73,1.78,0,.29,0,.58,0,.87,0,1.59-.11,1.77-1.74,1.78-5.17,.03-10.34,.03-15.51,0-1.62-.01-1.73-.19-1.73-1.8,0-.36,0-.71,0-1.07,0-1.36,.13-1.54,1.55-1.56,2.68-.03,5.36,0,8.05,0h0Z"/>
    <path class="cls-2" d="M60,461.82c0-1.2,0-2.39,0-3.59,0-.74,.25-1.15,1.08-1.1,.77,.05,1.55,.05,2.32,0,.73-.05,1.04,.32,1.04,.95,.03,2.52,.03,5.04,0,7.56,0,.66-.31,1.08-1.09,1.02-.71-.06-1.43-.06-2.13,0-.98,.09-1.25-.39-1.24-1.26,.02-1.19,0-2.39,0-3.59,0,0,0,0,0,0Z"/>
    <path class="cls-2" d="M38.68,461.93c0,1.2,0,2.39,0,3.59,0,.79-.28,1.21-1.15,1.15-.74-.05-1.49-.05-2.23,0-.72,.05-1.06-.31-1.07-.94-.03-2.55-.03-5.1,0-7.66,0-.63,.33-.99,1.06-.94,.77,.05,1.55,.05,2.32,0,.76-.05,1.06,.3,1.06,1.02,0,1.26,0,2.52,0,3.78,0,0,0,0,0,0Z"/>
  </g>
  <g>
    <path class="cls-2" d="M76.61,447.45c2.26,0,4.53,0,6.79,0,1.67,0,2.59,.9,2.6,2.57,.01,4.66,.01,9.32,0,13.98,0,1.72-.92,2.62-2.65,2.63-4.56,.01-9.12,.01-13.68,0-1.74,0-2.64-.91-2.64-2.63,0-4.66,0-9.32,0-13.98,0-1.67,.92-2.56,2.59-2.56,2.33,0,4.66,0,6.99,0Z"/>
    <path class="cls-2" d="M76.62,467.83c2.55,0,5.11-.02,7.66,0,1.63,.02,1.73,.15,1.73,1.78,0,.29,0,.58,0,.87,0,1.59-.11,1.77-1.74,1.78-5.17,.03-10.34,.03-15.51,0-1.62-.01-1.73-.19-1.73-1.8,0-.36,0-.71,0-1.07,0-1.36,.13-1.54,1.55-1.56,2.68-.03,5.36,0,8.05,0h0Z"/>
    <path class="cls-2" d="M87.18,461.82c0-1.2,0-2.39,0-3.59,0-.74,.25-1.15,1.08-1.1,.77,.05,1.55,.05,2.32,0,.73-.05,1.04,.32,1.04,.95,.03,2.52,.03,5.04,0,7.56,0,.66-.31,1.08-1.09,1.02-.71-.06-1.43-.06-2.13,0-.98,.09-1.25-.39-1.24-1.26,.02-1.19,0-2.39,0-3.59,0,0,0,0,0,0Z"/>
    <path class="cls-2" d="M65.85,461.93c0,1.2,0,2.39,0,3.59,0,.79-.28,1.21-1.15,1.15-.74-.05-1.49-.05-2.23,0-.72,.05-1.06-.31-1.07-.94-.03-2.55-.03-5.1,0-7.66,0-.63,.33-.99,1.06-.94,.77,.05,1.55,.05,2.32,0,.76-.05,1.06,.3,1.06,1.02,0,1.26,0,2.52,0,3.78,0,0,0,0,0,0Z"/>
  </g>
  <g>
    <path class="cls-2" d="M49.44,482.21c2.26,0,4.53,0,6.79,0,1.67,0,2.59,.9,2.6,2.57,.01,4.66,.01,9.32,0,13.98,0,1.72-.92,2.62-2.65,2.63-4.56,.01-9.12,.01-13.68,0-1.74,0-2.64-.91-2.64-2.63,0-4.66,0-9.32,0-13.98,0-1.67,.92-2.56,2.59-2.56,2.33,0,4.66,0,6.99,0Z"/>
    <path class="cls-2" d="M49.44,502.59c2.55,0,5.11-.02,7.66,0,1.63,.02,1.73,.15,1.73,1.78,0,.29,0,.58,0,.87,0,1.59-.11,1.77-1.74,1.78-5.17,.03-10.34,.03-15.51,0-1.62-.01-1.73-.19-1.73-1.8,0-.36,0-.71,0-1.07,0-1.36,.13-1.54,1.55-1.56,2.68-.03,5.36,0,8.05,0h0Z"/>
    <path class="cls-2" d="M60,496.58c0-1.2,0-2.39,0-3.59,0-.74,.25-1.15,1.08-1.1,.77,.05,1.55,.05,2.32,0,.73-.05,1.04,.32,1.04,.95,.03,2.52,.03,5.04,0,7.56,0,.66-.31,1.08-1.09,1.02-.71-.06-1.43-.06-2.13,0-.98,.09-1.25-.39-1.24-1.26,.02-1.19,0-2.39,0-3.59,0,0,0,0,0,0Z"/>
    <path class="cls-2" d="M38.68,496.69c0,1.2,0,2.39,0,3.59,0,.79-.28,1.21-1.15,1.15-.74-.05-1.49-.05-2.23,0-.72,.05-1.06-.31-1.07-.94-.03-2.55-.03-5.1,0-7.66,0-.63,.33-.99,1.06-.94,.77,.05,1.55,.05,2.32,0,.76-.05,1.06,.3,1.06,1.02,0,1.26,0,2.52,0,3.78,0,0,0,0,0,0Z"/>
  </g>
  <g>
    <path class="cls-2" d="M76.61,482.21c2.26,0,4.53,0,6.79,0,1.67,0,2.59,.9,2.6,2.57,.01,4.66,.01,9.32,0,13.98,0,1.72-.92,2.62-2.65,2.63-4.56,.01-9.12,.01-13.68,0-1.74,0-2.64-.91-2.64-2.63,0-4.66,0-9.32,0-13.98,0-1.67,.92-2.56,2.59-2.56,2.33,0,4.66,0,6.99,0Z"/>
    <path class="cls-2" d="M76.62,502.59c2.55,0,5.11-.02,7.66,0,1.63,.02,1.73,.15,1.73,1.78,0,.29,0,.58,0,.87,0,1.59-.11,1.77-1.74,1.78-5.17,.03-10.34,.03-15.51,0-1.62-.01-1.73-.19-1.73-1.8,0-.36,0-.71,0-1.07,0-1.36,.13-1.54,1.55-1.56,2.68-.03,5.36,0,8.05,0h0Z"/>
    <path class="cls-2" d="M87.18,496.58c0-1.2,0-2.39,0-3.59,0-.74,.25-1.15,1.08-1.1,.77,.05,1.55,.05,2.32,0,.73-.05,1.04,.32,1.04,.95,.03,2.52,.03,5.04,0,7.56,0,.66-.31,1.08-1.09,1.02-.71-.06-1.43-.06-2.13,0-.98,.09-1.25-.39-1.24-1.26,.02-1.19,0-2.39,0-3.59,0,0,0,0,0,0Z"/>
    <path class="cls-2" d="M65.85,496.69c0,1.2,0,2.39,0,3.59,0,.79-.28,1.21-1.15,1.15-.74-.05-1.49-.05-2.23,0-.72,.05-1.06-.31-1.07-.94-.03-2.55-.03-5.1,0-7.66,0-.63,.33-.99,1.06-.94,.77,.05,1.55,.05,2.32,0,.76-.05,1.06,.3,1.06,1.02,0,1.26,0,2.52,0,3.78,0,0,0,0,0,0Z"/>
  </g>
  <g>
    <path class="cls-2" d="M49.44,516.97c2.26,0,4.53,0,6.79,0,1.67,0,2.59,.9,2.6,2.57,.01,4.66,.01,9.32,0,13.98,0,1.72-.92,2.62-2.65,2.63-4.56,.01-9.12,.01-13.68,0-1.74,0-2.64-.91-2.64-2.63,0-4.66,0-9.32,0-13.98,0-1.67,.92-2.56,2.59-2.56,2.33,0,4.66,0,6.99,0Z"/>
    <path class="cls-2" d="M49.44,537.35c2.55,0,5.11-.02,7.66,0,1.63,.02,1.73,.15,1.73,1.78,0,.29,0,.58,0,.87,0,1.59-.11,1.77-1.74,1.78-5.17,.03-10.34,.03-15.51,0-1.62-.01-1.73-.19-1.73-1.8,0-.36,0-.71,0-1.07,0-1.36,.13-1.54,1.55-1.56,2.68-.03,5.36,0,8.05,0h0Z"/>
    <path class="cls-2" d="M60,531.34c0-1.2,0-2.39,0-3.59,0-.74,.25-1.15,1.08-1.1,.77,.05,1.55,.05,2.32,0,.73-.05,1.04,.32,1.04,.95,.03,2.52,.03,5.04,0,7.56,0,.66-.31,1.08-1.09,1.02-.71-.06-1.43-.06-2.13,0-.98,.09-1.25-.39-1.24-1.26,.02-1.19,0-2.39,0-3.59,0,0,0,0,0,0Z"/>
    <path class="cls-2" d="M38.68,531.45c0,1.2,0,2.39,0,3.59,0,.79-.28,1.21-1.15,1.15-.74-.05-1.49-.05-2.23,0-.72,.05-1.06-.31-1.07-.94-.03-2.55-.03-5.1,0-7.66,0-.63,.33-.99,1.06-.94,.77,.05,1.55,.05,2.32,0,.76-.05,1.06,.3,1.06,1.02,0,1.26,0,2.52,0,3.78,0,0,0,0,0,0Z"/>
  </g>
  <g>
    <path class="cls-2" d="M76.61,516.97c2.26,0,4.53,0,6.79,0,1.67,0,2.59,.9,2.6,2.57,.01,4.66,.01,9.32,0,13.98,0,1.72-.92,2.62-2.65,2.63-4.56,.01-9.12,.01-13.68,0-1.74,0-2.64-.91-2.64-2.63,0-4.66,0-9.32,0-13.98,0-1.67,.92-2.56,2.59-2.56,2.33,0,4.66,0,6.99,0Z"/>
    <path class="cls-2" d="M76.62,537.35c2.55,0,5.11-.02,7.66,0,1.63,.02,1.73,.15,1.73,1.78,0,.29,0,.58,0,.87,0,1.59-.11,1.77-1.74,1.78-5.17,.03-10.34,.03-15.51,0-1.62-.01-1.73-.19-1.73-1.8,0-.36,0-.71,0-1.07,0-1.36,.13-1.54,1.55-1.56,2.68-.03,5.36,0,8.05,0h0Z"/>
    <path class="cls-2" d="M87.18,531.34c0-1.2,0-2.39,0-3.59,0-.74,.25-1.15,1.08-1.1,.77,.05,1.55,.05,2.32,0,.73-.05,1.04,.32,1.04,.95,.03,2.52,.03,5.04,0,7.56,0,.66-.31,1.08-1.09,1.02-.71-.06-1.43-.06-2.13,0-.98,.09-1.25-.39-1.24-1.26,.02-1.19,0-2.39,0-3.59,0,0,0,0,0,0Z"/>
    <path class="cls-2" d="M65.85,531.45c0,1.2,0,2.39,0,3.59,0,.79-.28,1.21-1.15,1.15-.74-.05-1.49-.05-2.23,0-.72,.05-1.06-.31-1.07-.94-.03-2.55-.03-5.1,0-7.66,0-.63,.33-.99,1.06-.94,.77,.05,1.55,.05,2.32,0,.76-.05,1.06,.3,1.06,1.02,0,1.26,0,2.52,0,3.78,0,0,0,0,0,0Z"/>
  </g>
  <g>
    <path class="cls-2" d="M49.44,551.73c2.26,0,4.53,0,6.79,0,1.67,0,2.59,.9,2.6,2.57,.01,4.66,.01,9.32,0,13.98,0,1.72-.92,2.62-2.65,2.63-4.56,.01-9.12,.01-13.68,0-1.74,0-2.64-.91-2.64-2.63,0-4.66,0-9.32,0-13.98,0-1.67,.92-2.56,2.59-2.56,2.33,0,4.66,0,6.99,0Z"/>
    <path class="cls-2" d="M49.44,572.11c2.55,0,5.11-.02,7.66,0,1.63,.02,1.73,.15,1.73,1.78,0,.29,0,.58,0,.87,0,1.59-.11,1.77-1.74,1.78-5.17,.03-10.34,.03-15.51,0-1.62-.01-1.73-.19-1.73-1.8,0-.36,0-.71,0-1.07,0-1.36,.13-1.54,1.55-1.56,2.68-.03,5.36,0,8.05,0h0Z"/>
    <path class="cls-2" d="M60,566.1c0-1.2,0-2.39,0-3.59,0-.74,.25-1.15,1.08-1.1,.77,.05,1.55,.05,2.32,0,.73-.05,1.04,.32,1.04,.95,.03,2.52,.03,5.04,0,7.56,0,.66-.31,1.08-1.09,1.02-.71-.06-1.43-.06-2.13,0-.98,.09-1.25-.39-1.24-1.26,.02-1.19,0-2.39,0-3.59,0,0,0,0,0,0Z"/>
    <path class="cls-2" d="M38.68,566.21c0,1.2,0,2.39,0,3.59,0,.79-.28,1.21-1.15,1.15-.74-.05-1.49-.05-2.23,0-.72,.05-1.06-.31-1.07-.94-.03-2.55-.03-5.1,0-7.66,0-.63,.33-.99,1.06-.94,.77,.05,1.55,.05,2.32,0,.76-.05,1.06,.3,1.06,1.02,0,1.26,0,2.52,0,3.78,0,0,0,0,0,0Z"/>
  </g>
  <g>
    <path class="cls-2" d="M76.61,551.73c2.26,0,4.53,0,6.79,0,1.67,0,2.59,.9,2.6,2.57,.01,4.66,.01,9.32,0,13.98,0,1.72-.92,2.62-2.65,2.63-4.56,.01-9.12,.01-13.68,0-1.74,0-2.64-.91-2.64-2.63,0-4.66,0-9.32,0-13.98,0-1.67,.92-2.56,2.59-2.56,2.33,0,4.66,0,6.99,0Z"/>
    <path class="cls-2" d="M76.62,572.11c2.55,0,5.11-.02,7.66,0,1.63,.02,1.73,.15,1.73,1.78,0,.29,0,.58,0,.87,0,1.59-.11,1.77-1.74,1.78-5.17,.03-10.34,.03-15.51,0-1.62-.01-1.73-.19-1.73-1.8,0-.36,0-.71,0-1.07,0-1.36,.13-1.54,1.55-1.56,2.68-.03,5.36,0,8.05,0h0Z"/>
    <path class="cls-2" d="M87.18,566.1c0-1.2,0-2.39,0-3.59,0-.74,.25-1.15,1.08-1.1,.77,.05,1.55,.05,2.32,0,.73-.05,1.04,.32,1.04,.95,.03,2.52,.03,5.04,0,7.56,0,.66-.31,1.08-1.09,1.02-.71-.06-1.43-.06-2.13,0-.98,.09-1.25-.39-1.24-1.26,.02-1.19,0-2.39,0-3.59,0,0,0,0,0,0Z"/>
    <path class="cls-2" d="M65.85,566.21c0,1.2,0,2.39,0,3.59,0,.79-.28,1.21-1.15,1.15-.74-.05-1.49-.05-2.23,0-.72,.05-1.06-.31-1.07-.94-.03-2.55-.03-5.1,0-7.66,0-.63,.33-.99,1.06-.94,.77,.05,1.55,.05,2.32,0,.76-.05,1.06,.3,1.06,1.02,0,1.26,0,2.52,0,3.78,0,0,0,0,0,0Z"/>
  </g>
</svg>