<?xml version="1.0" encoding="utf-8"?>
<!-- Generator: Adobe Illustrator 26.0.0, SVG Export Plug-In . SVG Version: 6.00 Build 0)  -->
<svg version="1.1" id="Layer_1" xmlns="http://www.w3.org/2000/svg" xmlns:xlink="http://www.w3.org/1999/xlink" x="0px" y="0px"
	 viewBox="0 0 209.3 590.2" style="enable-background:new 0 0 209.3 590.2;" xml:space="preserve">
<g>
	<path d="M105.2,114.7c15.3,0,30.5,0,45.8,0c3.5,0,5,1.4,4.8,4.2c-0.3,4.8-2.1,7.1-5.5,6.7c-1.1-0.1-2.5-1-3-1.9
		c-2.7-4.5-6.7-7-12.7-7c-6.1-0.1-10.4,2.5-13,7.1c-1.2,2.2-2.3,2.5-4.6,0.8c-1.1-0.8-2.9-1.4-4.4-1.4c-17.2-0.1-34.3-0.2-51.5,0.1
		c-4.2,0.1-6.1-1.9-7.3-4.5c-0.4-0.8,1.6-2.8,3-3.7c0.9-0.6,2.7-0.3,4.1-0.3C75.6,114.7,90.3,114.7,105.2,114.7L105.2,114.7
		L105.2,114.7z M149.1,121.2c1.2-0.8,2-1.4,2.9-2.1c-0.8-0.5-1.7-1.2-2.5-1.2c-1,0-2,0.7-3.1,1.1
		C147.1,119.7,147.9,120.3,149.1,121.2L149.1,121.2z M59.9,121.2c1.2-0.8,2.1-1.4,3-2c-0.8-0.4-1.7-1.2-2.5-1.2c-1,0-2.1,0.7-3.1,1
		C58.1,119.7,58.9,120.2,59.9,121.2L59.9,121.2z"/>
	<path d="M152,486.7c-2.2,0.4-4.4,1-6.5,1c-26.5,0.1-53,0.1-79.5,0.1c-2.9,0-5.7-0.7-8.6-1c0.1-0.5,0.1-0.9,0.1-1.4h94.4
		C151.9,485.7,152,486.2,152,486.7L152,486.7z"/>
	<path d="M54.6,161.3v31.1c-0.4,0.1-0.8,0.3-1.1,0.5c-0.7-1.2-2-2.5-2-3.7c-0.2-9.3-0.1-18.7,0-28c0-1.1,1-2.2,1.2-2.7
		c2.6,0.6,4.4,1.4,6.3,1.4c9.6,0.1,19.2,0,28.8,0.1c1,0,2,0.8,3.1,1.3c-1,0.4-2,1.1-2.9,1.1c-9.7,0.1-19.5,0.1-29.1,0
		C57.4,162.3,56.1,161.7,54.6,161.3L54.6,161.3z"/>
	<path d="M121.2,142.5v14.2c4.1-0.4,7.8-0.9,11.4-1c3.7-0.1,7.3,0.4,11.9,0.7v-14c0.4,0,0.8-0.1,1.2-0.1c0.3,0.5,0.8,1,0.8,1.4
		c0.1,4.1,0.1,8.3,0.1,12.4c0,2-1.1,3-3.3,3c-6.9,0-13.7,0.1-20.5-0.1c-1.2-0.1-3.2-1.4-3.3-2.2c-0.3-4.6-0.2-9.1-0.1-13.7
		c0-0.5,0.3-0.8,0.5-1.2L121.2,142.5L121.2,142.5z"/>
	<path d="M63.5,142.5v14.2c4.1-0.4,7.8-0.9,11.4-1c3.7-0.1,7.3,0.4,11.9,0.7v-14c0.4,0,0.8-0.1,1.2-0.1c0.3,0.5,0.8,1,0.8,1.4
		c0.1,4.1,0.1,8.3,0.1,12.4c0,2-1.1,3-3.3,3c-6.9,0-13.7,0.1-20.5-0.1c-1.2-0.1-3.2-1.4-3.3-2.2c-0.3-4.6-0.2-9.1-0.1-13.7
		c0-0.5,0.3-0.8,0.5-1.2L63.5,142.5L63.5,142.5z"/>
	<path d="M169.2,107.3c-1.3,7.7-6,13.2-11.2,13.1v-4.7c4.2,0.4,5.2-2.2,6.4-4.8c1-2.2,1.2-3.7-2.2-4.2c-0.8-0.1-1.9-1.6-1.7-2.2
		c0.3-0.8,1.6-1.6,2.6-1.7c2.1-0.3,4.4-0.3,6.5,0c1.2,0.2,2.3,1.2,3.5,1.8c-0.8,0.8-1.6,1.6-2.5,2.3
		C170.2,107.1,169.6,107.2,169.2,107.3z"/>
	<path d="M51.2,115.4v4.8c-5,0.5-10.1-5.5-11.1-12.9c-0.7-0.2-1.6-0.3-2.3-0.8c-0.7-0.5-1.6-1.2-1.5-1.8c0.1-0.7,1-1.8,1.6-1.8
		c3.1-0.1,6.3-0.1,9.5,0.1c0.5,0.1,1.3,1,1.4,1.6c0.1,0.6-0.5,1.5-1,1.8c-1.9,0.8-4.9,1-3.3,3.9C45.9,112.5,45.9,116.1,51.2,115.4z"
		/>
	<path d="M156.4,338.5c0.5,1.3,1.5,2.5,1.5,3.9c0.1,9.1,0.1,18.2,0,27.4c0,1.3-1.2,2.7-1.8,4l-1-0.3v-34.5L156.4,338.5L156.4,338.5z
		"/>
	<path d="M156.2,157.7c0.6,1.3,1.6,2.7,1.7,4c0.1,9,0.1,18.1,0,27.1c0,1.4-1.1,2.7-1.7,4l-1.2-0.3v-34.3
		C155.4,158,155.8,157.8,156.2,157.7L156.2,157.7z"/>
	<path d="M52.9,373.3c-0.5-1.2-1.6-2.5-1.6-3.8c-0.1-9.1-0.1-18.3,0-27.4c0-1.3,1-2.5,1.6-3.9c0.4,0.1,0.7,0.1,1.1,0.3v34.4
		C53.8,373.1,53.4,373.2,52.9,373.3L52.9,373.3z"/>
	<path d="M156.4,417.4c0.5,1.3,1.5,2.5,1.5,3.9c0.1,9.1,0.1,18.2,0,27.4c0,1.3-1.2,2.7-1.8,4l-1-0.3v-34.5L156.4,417.4L156.4,417.4z
		"/>
	<path d="M52.9,452.3c-0.5-1.2-1.6-2.5-1.6-3.8c-0.1-9.1-0.1-18.3,0-27.4c0-1.3,1-2.5,1.6-3.9c0.4,0.1,0.7,0.1,1.1,0.3v34.4
		C53.8,452.1,53.4,452.2,52.9,452.3L52.9,452.3z"/>
	<path d="M156.4,249c0.5,1.2,1.5,2.5,1.5,3.9c0.1,9.1,0.1,18.2,0,27.4c0,1.3-1.2,2.7-1.8,4l-1-0.3v-34.5L156.4,249L156.4,249z"/>
	<path d="M52.9,283.9c-0.5-1.2-1.6-2.5-1.6-3.8c-0.1-9.1-0.1-18.3,0-27.4c0-1.3,1-2.5,1.6-3.9c0.4,0.1,0.7,0.1,1.1,0.3v34.4
		C53.8,283.7,53.4,283.8,52.9,283.9L52.9,283.9z"/>
	<path d="M153.4,160.9c-0.8,0.5-1.5,1.4-2.3,1.4c-10.2,0.1-20.3,0.1-30.5,0c-0.7,0-1.4-0.8-2.2-1.2c0.7-0.4,1.4-1.2,2.1-1.2
		c10.7-0.1,21.5-0.1,32.2-0.1C153,160.2,153.2,160.5,153.4,160.9L153.4,160.9z"/>
	<path d="M157.9,122.5c0,2.2-0.2,4.4,0.1,6.5c0.4,3.3-1.1,6.8,1.8,10.1c2,2.3,0.1,5.4-3.4,7v-23.6
		C156.9,122.5,157.4,122.5,157.9,122.5L157.9,122.5z"/>
	<path d="M52.9,122.7v23.1c-4.4-1.6-5.2-4.8-2.3-8.2c0.7-0.8,0.7-2,0.8-3c0.1-3.9,0-7.9,0-11.9C51.9,122.8,52.3,122.8,52.9,122.7
		L52.9,122.7z"/>
	<path d="M144.3,125c-6.8,1.2-8.6,0-7.6-5.4C139.4,121.5,141.5,123,144.3,125z"/>
	<path d="M132.1,119.5c1,5.5-0.7,6.7-7.4,5.6C127.4,123.1,129.4,121.6,132.1,119.5z"/>
</g>
</svg>
