<?xml version="1.0" encoding="UTF-8"?>
<svg id="Layer_1" data-name="Layer 1" xmlns="http://www.w3.org/2000/svg" viewBox="0 0 155.78 127.92">
  <defs>
    <style>
      .cls-1 {
        fill: #1b4958;
      }
    </style>
  </defs>
  <path class="cls-1" d="M78.38,0c11.66,0,23.32-.03,34.98,0,8.61,.02,13.36,4.64,13.38,13.22,.06,23.99,.05,47.97,0,71.96-.02,8.85-4.72,13.5-13.63,13.52-23.49,.05-46.97,.06-70.46,0-8.94-.02-13.59-4.67-13.61-13.54-.04-23.99-.05-47.97,0-71.96C29.06,4.62,33.76,.04,42.4,.02c11.99-.03,23.99,0,35.98,0Z"/>
  <path class="cls-1" d="M78.42,104.94c13.14,0,26.29-.1,39.43,.04,8.38,.09,8.9,.78,8.91,9.15,0,1.5,0,2.99,0,4.49,0,8.2-.56,9.11-8.98,9.17-26.62,.17-53.23,.18-79.85,0-8.36-.05-8.9-.96-8.9-9.25,0-1.83,0-3.66,0-5.49,0-7.01,.68-7.94,7.98-8.03,13.81-.18,27.61-.05,41.42-.05,0,0,0-.02,0-.03Z"/>
  <path class="cls-1" d="M132.78,74.01c0-6.15,.04-12.31-.02-18.46-.03-3.81,1.27-5.94,5.56-5.65,3.97,.27,8,.28,11.97,0,3.76-.27,5.34,1.66,5.38,4.89,.13,12.97,.14,25.95,.02,38.92-.03,3.39-1.6,5.56-5.63,5.25-3.64-.28-7.34-.33-10.97,0-5.02,.46-6.46-2.02-6.37-6.48,.12-6.15,.03-12.31,.03-18.46,0,0,.01,0,.02,0Z"/>
  <path class="cls-1" d="M22.98,74.58c0,6.15-.04,12.31,.01,18.46,.04,4.06-1.45,6.22-5.92,5.9-3.81-.28-7.66-.27-11.47,0-3.71,.27-5.46-1.6-5.49-4.82-.15-13.14-.14-26.28-.02-39.41,.03-3.26,1.72-5.09,5.44-4.83,3.97,.28,7.99,.25,11.97,0,3.94-.24,5.47,1.53,5.46,5.23-.02,6.49,0,12.97,0,19.46,.01,0,.02,0,.03,0Z"/>
</svg>