<svg id="Layer_1" data-name="Layer 1" xmlns="http://www.w3.org/2000/svg" viewBox="0 0 535.45 300.64"><path d="M143.89,605.12a289.18,289.18,0,0,1,59.27-40.58c-.17-.6-.35-1.21-.53-1.81-2.23.28-4.49.42-6.69.86-12.92,2.58-25.78,4.78-39.14,3.59-24.46-2.19-36.34-23.39-37.29-41.09-1.69-31.9,8.61-60.35,22.68-87.89,17.08-33.44,38.93-63.24,69.1-86.21A161.84,161.84,0,0,1,266,325c13.81-3.91,27.5-3.55,41-2.37,11.08,1,22,5.23,32.71,8.71,30,9.71,57,25.72,84.18,41.21q53.82,30.63,107.87,60.86c5.74,3.23,11.66,6.13,17.06,10.15-5.52-2.39-11.23-4.42-16.54-7.21-28.85-15.21-57.79-30.27-86.35-46-30.76-17-60.76-35.36-93.6-48.23-26.76-10.49-54-16.71-83-10.08-23.68,5.41-44,16.77-62.17,32.55-1,.89-1.52,2.37-2.26,3.58,1.4.75,2.73,2,4.21,2.18,17.14,2.29,34.31,4.44,51.48,6.58,1.77.23,3.57.24,5.36.35l.1,1.32c-4.11.37-8.26,1.27-12.33,1-16.62-1-33.25-2-49.8-3.65-5.5-.56-9.61-.17-13.11,4.45-2.73,3.58-2.75,4.65,1.56,5.54,5.7,1.19,11.43,2.33,17.2,3.1,29.9,4,59.83,4.52,89.66-.36,10.8-1.76,21.38-4.94,32.06-7.49,1.85-.44,3.67-1,5.5-1.48l.93,1.17c-2.51,3.61-4.84,7.36-7.56,10.82-21.95,27.9-51.76,41.07-86.16,44.87-21.54,2.39-43.23,3.43-64.83.36a121.57,121.57,0,0,1-19.35-4.61c-3.5-1.11-5.69-1-7.29,2.47-4.77,10.44-9.81,20.77-14.32,31.32-3.34,7.83-.91,13.32,7.44,15.24,6.87,1.59,14.34,2.75,21.2,1.75,18.59-2.7,37.14-6,55.44-10.23,38-8.76,76.18-16.62,115-20.76,41-4.37,82.17-4.56,123.31-2,7.91.5,15.77,1.88,23.15,2.79-8.17,0-16.8.06-25.42,0-39.51-.36-78.43,4.58-117,12.63-43.94,9.16-86.74,22.21-129,37-17.95,6.29-36.22,11.65-55.54,11.36-9.85-.14-19.34-1.58-26.15-9.93-.26-.32-.89-.33-1.43-.51-.4.31-1.06.55-1.11.89-2,13.52-3,26.91,5.72,38.85,8.45,11.6,20.54,14.46,34,14.16,18.85-.43,36.11-7.4,53.66-13.14,44.78-14.64,89.36-29.89,134.36-43.83,17.89-5.55,36.66-8.3,55-12.29a2.17,2.17,0,0,1,1.55.41c-57.9,13-113.92,31.73-169.07,53.15l.66,2.17c10.11-3,20.26-5.84,30.31-9C317.93,521,362,508.55,406.87,499.29c47.62-9.83,95.67-15.71,144.38-14.26,16.74.49,33.44,2.13,49.93,3.23-10.64,0-21.44.38-32.21-.07-43.67-1.82-86.87,2.19-129.82,9.79-54.93,9.72-108.08,26.16-161.23,42.62-22,6.8-44.09,13-66.12,19.57-1.87.56-4,1.23-5.31,2.55-12.8,13.12-28.57,22.2-43.57,32.32-5.89,4-12,7.65-18,11.47Z" transform="translate(-119.33 -321.8)"/><path d="M328.8,622.25c-4.95,0-8.72.22-12.43-.14-1.09-.11-2.23-1.75-3-2.93-4.21-6.78-8.25-13.67-12.47-20.45-2.19-3.52-13-5.46-16.06-2.75-1,.89-1.45,2.9-1.49,4.41-.13,5.82-.17,11.66.11,17.47.2,4.08-1.92,4.83-5.22,4.49-2.9-.29-6.76,1.12-6.71-4.15.09-10.15.07-20.31,0-30.46,0-3,1.28-4.26,4.19-4.24,5,0,10.07.52,15-.21,4.27-.64,8.42-2.5,12.43-4.25,1.21-.53,1.78-2.5,2.64-3.8-1.41-.53-2.81-1.49-4.24-1.52-8.31-.14-16.65-.32-24.95,0-5.22.22-5-2.84-5.08-6.38-.13-3.87.87-5.72,5.31-5.63q19.47.39,38.94,0c4.88-.12,6.13,1.82,5.68,6.2a28.82,28.82,0,0,1-8.69,18.56c-2.71,2.59-2.82,4.57-.73,7.69,5.08,7.61,9.75,15.48,14.54,23.28C327.23,618.52,327.65,619.75,328.8,622.25Z" transform="translate(-119.33 -321.8)"/><path d="M484.7,602.61c0-4.83.18-9.67-.06-14.48-.25-5.15,3.27-4.34,6.37-4.51s5.61.24,5.45,4.41c-.2,5.32.05,10.66-.12,16-.11,3.61,1.37,5.26,5,5.12,6.06-.23,12.28,1.08,17.69-3.33,6.07-4.94,8.8-12,6.75-19A17.93,17.93,0,0,0,509.63,574c-6.65-.3-13.33-.39-20,0-5.2.27-5-2.81-5.08-6.37-.08-3.74.62-6,5.22-5.71,6,.38,12,.12,18,.17,14,.1,26.54,9.19,29.3,21.23,3.55,15.45-2.59,27.45-15.8,35.25-11.15,6.58-22.69,2.71-34,3.56-.77.06-2.41-2.54-2.5-4-.31-5.14-.12-10.31-.12-15.47Z" transform="translate(-119.33 -321.8)"/><path d="M448.54,592.26c0,8.32-.23,16.66.08,25,.19,5.06-2.59,5-6.3,5.15-4,.14-5.85-.93-5.65-5.25.26-5.65,0-11.32.08-17,.05-3.25-1.18-5-4.64-5-6.33.06-12.66.11-19,0-3.61-.06-5.19,1.48-5.11,5.07.11,5.66-.12,11.33.15,17,.32,6.47-4.28,4.86-7.84,5.19-4.12.38-4.48-1.92-4.44-5.27.16-16.48.24-33,.05-49.45,0-4,.75-5.9,5.15-5.75,3.89.14,7.53-.28,7.05,5.48-.33,3.81,0,7.66-.11,11.49-.07,3.34,1.39,4.88,4.79,4.83,6.32-.08,12.65-.1,19,0,3.7.07,5.07-1.64,5-5.17-.12-4.16.06-8.32,0-12.48s2.68-4.2,5.71-4.13,6.19-.36,6.12,4.31c-.11,8.66,0,17.32,0,26Z" transform="translate(-119.33 -321.8)"/><path d="M263.39,591.42c.59,18.38-17.2,31.15-30,30.68s-29.06-12.7-28.82-30.36c.22-16.55,13.15-29.64,29.54-29.52S263.51,575.44,263.39,591.42Zm-11.64.36c0-9.78-8.06-18-17.64-18.06s-18,8.27-18,17.77c0,9.67,8.19,18,17.68,18A18,18,0,0,0,251.75,591.78Z" transform="translate(-119.33 -321.8)"/><path d="M386,599.82c-2.68,4-4.79,8.64-8.15,12-5.81,5.81-12.72,10.7-21.39,10.34-11.78-.47-27.46-11.17-29.24-26.4-1.82-15.59,7.51-29.52,22.06-32.91,15.2-3.54,29.84,4,35.28,18.14,1.19,3.09.95,4.58-2.91,4.71-4.74.16-8.2-.55-11.3-5.09-5.87-8.57-18-9.3-25.55-2.4a17.54,17.54,0,0,0-.27,26.14c7.1,6.83,19.49,6.63,25.28-1.52,4.32-6.07,9.26-5,14.73-4.41Z" transform="translate(-119.33 -321.8)"/><path d="M627.23,471.06c-7.73-1-15.5-1.64-23.16-2.94-35.28-6-68.21-19.09-100.28-34.4C477.37,421.11,451.51,407.32,425,395c-14.71-6.84-30.31-11.8-45.34-18.43,8.75,2.4,17.61,4.47,26.24,7.26,31.5,10.19,60.4,26.18,90,40.65,24.65,12.06,49.33,24.29,75.79,32,16.1,4.67,32.65,7.82,49,11.62,2.23.52,4.51.87,6.77,1.31C627.36,469.91,627.29,470.48,627.23,471.06Z" transform="translate(-119.33 -321.8)"/><path d="M654.78,492c-79.15-15.82-159-20.92-239.6-16.25C496.15,465.16,576,470.37,654.78,492Z" transform="translate(-119.33 -321.8)"/><path d="M352.88,405.73c1-7.23,2.41-13.81,7.49-19,6.29-6.45,14.68-5.29,18.35,2.86,4.57,10.13,3.8,20.22-2.23,29.55-5.67,8.8-14.78,8.52-19.71-.7C354.73,414.58,354.13,410,352.88,405.73Z" transform="translate(-119.33 -321.8)"/><path d="M470.59,592.27c0,8.32-.23,16.65.09,25,.19,5.06-2.71,5.07-6.34,5.2s-5.82-.58-5.76-5.11c.22-16.64.27-33.28,0-49.92-.09-5.07,2.21-5.62,6.32-5.73,4.28-.11,5.95,1.13,5.78,5.64-.32,8.31-.09,16.64-.09,25Z" transform="translate(-119.33 -321.8)"/><path d="M410.62,410.82c-1.46,4.19-2.47,9.34-4.93,13.66-4.47,7.87-12.74,7.44-17.34-.43-4.16-7.12-3-20.13,2.37-26.43,5.77-6.77,13.31-6,17.06,2.11C409.21,402.8,409.53,406.39,410.62,410.82Z" transform="translate(-119.33 -321.8)"/><path d="M436.69,417.92c-1.24,3.64-2,8.2-4.2,11.9-4.14,6.95-11.36,6.36-15.21-.78-3.25-6-2.18-16.37,2.26-21.67,5.11-6.1,11.59-5.27,14.79,2.06C435.37,411.81,435.76,414.47,436.69,417.92Z" transform="translate(-119.33 -321.8)"/><path d="M457.88,425.33c-1.34,3.37-2.25,7.13-4.19,10.25-2.87,4.63-7.84,4.46-11.05.13-3.79-5.12-2.92-15.45,1.67-19.9,4.13-4,8.05-3.55,10.86,1.56C456.4,419.61,456.87,422.27,457.88,425.33Z" transform="translate(-119.33 -321.8)"/><path d="M544.93,571.17a279.52,279.52,0,0,1,59.19-40.25l1.31,1.92-59.06,40.3Z" transform="translate(-119.33 -321.8)"/><path d="M479.34,433.13c-2,3.2-3.79,6.59-6.2,9.45-.59.7-3.65.25-4.84-.65-3.56-2.71-4-6.69-3.19-10.86.88-4.61,4.13-8,7.32-7.42C477.25,424.54,478,428.3,479.34,433.13Z" transform="translate(-119.33 -321.8)"/><path d="M496.11,439.94c-2.86,2.89-4.67,6.33-6.81,6.55-4,.39-4.68-3.41-4.45-6.74s1.48-6.9,5.2-6.48C492,433.48,493.52,437,496.11,439.94Z" transform="translate(-119.33 -321.8)"/><path d="M509.14,446.23l-3.75,4.08c-1.05-1.22-3.06-2.58-2.91-3.63.23-1.53,2-2.84,3.13-4.24Z" transform="translate(-119.33 -321.8)"/></svg>